<?xml version="1.0" standalone="no"?>
<!DOCTYPE svg PUBLIC "-//W3C//DTD SVG 20010904//EN"
 "http://www.w3.org/TR/2001/REC-SVG-20010904/DTD/svg10.dtd">
<svg version="1.0" xmlns="http://www.w3.org/2000/svg"
 width="700.000000pt" height="700.000000pt" viewBox="0 0 700.000000 700.000000"
 preserveAspectRatio="xMidYMid meet">
<metadata>
Created by potrace 1.11, written by Peter Selinger 2001-2013
</metadata>
<g transform="translate(0.000000,700.000000) scale(0.100000,-0.100000)"
fill="#000000" stroke="none">
<path d="M1835 6985 c-51 -17 -219 -109 -327 -178 -295 -191 -552 -424 -779
-707 -121 -150 -273 -368 -342 -490 -155 -274 -244 -466 -340 -740 -35 -97
-41 -127 -41 -195 0 -66 4 -90 26 -135 87 -185 307 -250 475 -141 95 61 106
80 213 371 39 104 163 370 207 445 10 17 34 57 53 90 19 33 38 65 43 70 4 6
16 22 25 36 56 87 85 127 175 244 223 288 492 519 808 695 143 80 198 141 222
247 45 202 -98 389 -305 399 -44 2 -89 -3 -113 -11z"/>
<path d="M3030 6358 c-343 -45 -420 -479 -111 -630 43 -21 58 -22 251 -23 113
0 210 -3 215 -6 6 -4 31 -10 57 -13 182 -24 459 -143 680 -289 280 -187 522
-455 678 -752 78 -147 192 -458 225 -608 31 -146 47 -225 51 -241 6 -32 44
-296 50 -344 2 -26 9 -83 15 -127 5 -44 12 -98 15 -120 2 -22 7 -51 9 -65 2
-14 7 -47 10 -75 3 -27 7 -61 10 -75 5 -28 14 -89 20 -135 10 -75 36 -179 54
-213 43 -83 138 -153 235 -171 134 -25 283 46 348 166 25 46 48 140 42 176 -1
9 -5 35 -8 59 -3 24 -8 57 -11 73 -12 70 -15 94 -25 170 -6 44 -13 91 -15 105
-2 14 -6 52 -10 85 -7 64 -7 66 -24 195 -6 47 -13 103 -16 125 -77 621 -256
1153 -524 1555 -92 137 -101 149 -206 274 -215 256 -530 504 -834 656 -271
136 -485 204 -771 245 -71 11 -338 12 -410 3z"/>
<path d="M2220 6143 c-106 -14 -357 -173 -549 -348 -183 -167 -356 -380 -449
-555 -14 -25 -30 -52 -37 -60 -21 -25 -171 -338 -208 -435 -103 -266 -172
-521 -164 -602 29 -284 381 -400 574 -190 51 57 54 62 124 297 53 180 109 319
199 495 183 360 346 546 650 743 118 77 152 106 184 155 51 82 62 195 26 291
-51 134 -207 227 -350 209z"/>
<path d="M5734 5719 c-179 -34 -297 -213 -257 -391 13 -58 26 -85 85 -178 94
-146 191 -386 268 -657 37 -132 55 -168 108 -221 65 -65 139 -95 233 -96 67 0
86 5 143 33 111 54 175 149 184 272 4 55 -2 88 -36 210 -67 235 -153 461 -244
643 -55 109 -146 255 -183 292 -76 78 -194 114 -301 93z"/>
<path d="M3078 5445 c-1 -2 -30 -6 -63 -9 -68 -6 -82 -9 -145 -26 -25 -7 -49
-13 -55 -14 -63 -12 -207 -73 -305 -129 -222 -126 -483 -379 -535 -518 -31
-83 -24 -185 19 -266 25 -50 100 -119 153 -144 70 -31 190 -34 262 -6 54 21
91 53 231 201 237 249 532 316 840 189 217 -90 445 -317 554 -554 33 -71 74
-183 82 -222 2 -10 5 -26 8 -35 5 -15 23 -129 41 -257 3 -22 7 -49 10 -60 2
-11 7 -42 10 -70 3 -27 10 -75 15 -105 5 -30 12 -75 15 -99 3 -23 7 -55 10
-70 5 -29 9 -61 20 -146 3 -27 8 -61 10 -75 3 -14 7 -47 10 -75 3 -27 8 -66
10 -85 3 -19 7 -52 10 -72 3 -21 8 -55 11 -75 3 -21 7 -51 9 -68 2 -16 6 -45
9 -62 3 -18 8 -45 11 -60 35 -213 64 -371 80 -443 3 -14 8 -36 11 -50 2 -14 7
-36 10 -50 3 -14 7 -32 9 -40 33 -158 56 -211 116 -271 154 -154 426 -111 524
81 49 96 48 141 -4 387 -22 104 -42 204 -45 223 -3 19 -8 46 -11 60 -11 57
-27 147 -32 175 -2 17 -10 71 -18 120 -8 50 -17 110 -20 135 -3 25 -8 56 -10
70 -2 14 -7 50 -10 80 -4 30 -15 116 -25 190 -11 74 -22 155 -25 180 -3 25
-10 79 -16 120 -11 78 -12 84 -28 190 -6 36 -13 83 -16 105 -4 22 -8 51 -10
64 -2 13 -7 45 -11 70 -3 25 -10 62 -14 81 -5 19 -11 46 -14 60 -3 14 -14 58
-26 99 -144 508 -531 958 -995 1159 -78 34 -246 86 -315 97 -25 4 -54 9 -65
12 -25 5 -282 13 -287 8z"/>
<path d="M3112 4495 c-244 -67 -420 -240 -531 -522 -19 -48 -67 -209 -77 -258
-16 -74 -40 -265 -50 -385 -6 -77 -6 -493 0 -565 2 -22 7 -85 10 -140 4 -55 9
-116 11 -135 2 -19 7 -60 10 -90 6 -52 21 -173 31 -250 9 -68 17 -95 36 -133
30 -61 95 -124 157 -154 48 -24 68 -28 141 -28 73 1 93 5 140 28 72 37 123 87
157 156 23 48 27 68 27 141 0 47 -3 105 -7 130 -8 49 -25 198 -32 270 -2 25
-7 83 -11 130 -10 107 -11 573 -2 660 16 151 41 287 68 367 16 47 31 88 34 90
7 7 22 -26 56 -126 17 -51 42 -110 55 -131 25 -40 81 -90 121 -109 13 -6 36
-16 50 -23 14 -7 60 -12 102 -12 62 0 88 5 133 26 76 35 133 88 166 156 24 49
28 69 28 142 0 73 -6 100 -39 195 -66 188 -123 284 -245 407 -81 82 -171 137
-267 162 -68 18 -207 18 -272 1z"/>
<path d="M1900 4172 c-66 -25 -101 -46 -136 -84 -67 -72 -72 -87 -128 -368
-46 -235 -41 -350 18 -440 123 -187 380 -206 529 -40 50 56 74 114 82 205 7
74 10 89 41 244 32 157 30 233 -6 309 -55 115 -158 183 -283 187 -48 2 -87 -2
-117 -13z"/>
<path d="M3581 3247 c-77 -25 -160 -100 -193 -174 -23 -51 -30 -160 -16 -258
23 -162 38 -266 43 -310 5 -40 15 -117 20 -145 7 -38 15 -100 21 -155 9 -89
11 -110 29 -305 6 -66 16 -238 20 -375 5 -143 9 -163 40 -224 34 -65 85 -115
152 -148 50 -24 70 -28 143 -28 66 0 95 5 130 22 69 33 136 97 167 161 27 55
28 63 27 197 -1 139 -11 383 -19 460 -3 22 -7 72 -10 110 -3 39 -7 86 -10 105
-2 19 -9 76 -15 125 -6 50 -13 104 -15 120 -7 53 -16 109 -20 135 -4 24 -21
153 -31 235 -2 22 -6 56 -9 75 -3 19 -7 55 -10 80 -14 104 -47 173 -115 234
-88 79 -210 103 -329 63z"/>
<path d="M2866 1673 c-90 -27 -163 -88 -206 -173 -26 -50 -29 -73 -35 -260 -5
-159 -6 -172 -24 -275 -25 -142 -61 -234 -131 -338 -42 -63 -61 -122 -61 -189
0 -73 14 -122 49 -179 110 -173 347 -205 503 -67 56 49 158 220 210 351 30 75
75 246 84 317 4 38 18 127 22 145 2 11 6 106 10 210 5 177 4 194 -16 245 -11
31 -35 75 -51 97 -34 46 -118 106 -165 117 -57 14 -140 14 -189 -1z"/>
</g>
</svg>
