<svg width="100" height="100" viewBox="0 0 100 100" fill="none" xmlns="http://www.w3.org/2000/svg">
<path d="M100 50.001C100 63.3564 94.799 75.9119 85.3555 85.3555C75.9119 94.799 63.3564 100 50.001 100C36.6455 100 24.0881 94.799 14.6445 85.3555C5.20098 75.9119 0 63.3564 0 50.001C0 36.6455 5.20098 24.0881 14.6445 14.6445C24.0881 5.20098 36.6455 0 50.001 0C63.3564 0 75.9119 5.20098 85.3555 14.6445C94.799 24.0881 100 36.6455 100 50.001Z" fill="#F5F0EB"/>
<path d="M100 50.001C100 63.3564 94.799 75.9119 85.3555 85.3555C75.9119 94.799 63.3564 100 50.001 100V0C63.3564 0 75.9119 5.20098 85.3555 14.6445C94.799 24.0881 100 36.6455 100 50.001Z" fill="#DCD2CD"/>
<path d="M87.2528 50.001C87.2528 70.5409 70.5409 87.2508 50.001 87.2508C29.4592 87.2508 12.7493 70.5409 12.7493 50.001C12.7493 29.4592 29.4592 12.7493 50.001 12.7493C70.5409 12.7493 87.2528 29.4592 87.2528 50.001Z" fill="#A7D22A"/>
<path d="M87.2527 50.001C87.2527 70.5409 70.5408 87.2508 50.001 87.2508V12.7493C70.5408 12.7493 87.2527 29.4592 87.2527 50.001Z" fill="#66BB00"/>
<path d="M61.8583 45.6118L50.001 57.471L48.9175 58.5546C48.3366 59.1354 47.5757 59.4251 46.8128 59.4251H46.7678C46.0167 59.4251 45.2657 59.1395 44.6925 58.5665L38.31 52.1821C37.1637 51.0378 37.1637 49.1796 38.31 48.0335C39.4563 46.8874 41.3145 46.8872 42.4587 48.0335L46.7423 52.3151L50.0009 49.0565L57.6526 41.4048C58.8145 40.2428 60.6981 40.2428 61.8581 41.4048C63.0202 42.5663 63.0202 44.4499 61.8583 45.6118Z" fill="white"/>
<path d="M61.8582 45.6117L50.001 57.4709V49.0563L57.6527 41.4045C58.8147 40.2426 60.6982 40.2426 61.8582 41.4045C63.0201 42.5662 63.0201 44.4498 61.8582 45.6117Z" fill="#F5F0EB"/>
</svg>
