<svg width="24" height="24" viewBox="0 0 24 24" fill="none" xmlns="http://www.w3.org/2000/svg">
<g clip-path="url(#clip0)">
<path d="M17.0118 7.74023H15.7555C15.4823 7.74023 15.2225 7.87148 15.0618 8.09648L10.8511 13.9358L8.94392 11.2893C8.78321 11.067 8.52606 10.9331 8.25017 10.9331H6.99392C6.81981 10.9331 6.71803 11.1313 6.81981 11.2733L10.1573 15.9018C10.2362 16.0119 10.3401 16.1016 10.4605 16.1634C10.5809 16.2253 10.7143 16.2575 10.8497 16.2575C10.9851 16.2575 11.1185 16.2253 11.2389 16.1634C11.3594 16.1016 11.4633 16.0119 11.5421 15.9018L17.1832 8.08041C17.2877 7.93845 17.1859 7.74023 17.0118 7.74023Z" fill="#049A49"/>
<path d="M12 0C5.37321 0 0 5.37321 0 12C0 18.6268 5.37321 24 12 24C18.6268 24 24 18.6268 24 12C24 5.37321 18.6268 0 12 0ZM12 21.9643C6.49821 21.9643 2.03571 17.5018 2.03571 12C2.03571 6.49821 6.49821 2.03571 12 2.03571C17.5018 2.03571 21.9643 6.49821 21.9643 12C21.9643 17.5018 17.5018 21.9643 12 21.9643Z" fill="#049A49"/>
</g>
<defs>
<clipPath id="clip0">
<rect width="24" height="24" fill="white"/>
</clipPath>
</defs>
</svg>
