<svg width="18" height="18" viewBox="0 0 18 18" fill="none" xmlns="http://www.w3.org/2000/svg">
<path d="M10.3886 9.00167L17.4198 0.620424C17.5377 0.481139 17.4386 0.269531 17.2564 0.269531H15.1189C14.993 0.269531 14.8725 0.325781 14.7894 0.42221L8.99034 7.3356L3.19123 0.42221C3.11087 0.325781 2.99034 0.269531 2.86177 0.269531H0.724266C0.542123 0.269531 0.443016 0.481139 0.560873 0.620424L7.59212 9.00167L0.560873 17.3829C0.534472 17.414 0.517535 17.4519 0.512071 17.4923C0.506608 17.5327 0.512848 17.5738 0.530052 17.6108C0.547255 17.6477 0.574699 17.6789 0.609125 17.7008C0.643551 17.7226 0.683513 17.734 0.724266 17.7338H2.86177C2.98766 17.7338 3.10819 17.6776 3.19123 17.5811L8.99034 10.6677L14.7894 17.5811C14.8698 17.6776 14.9903 17.7338 15.1189 17.7338H17.2564C17.4386 17.7338 17.5377 17.5222 17.4198 17.3829L10.3886 9.00167Z" fill="#333333"/>
</svg>
