<svg width="28" height="28" viewBox="0 0 28 28" fill="none" xmlns="http://www.w3.org/2000/svg">
<g clip-path="url(#clip0)">
<path d="M27 2.99414H1C0.446875 2.99414 0 3.44102 0 3.99414V23.9941C0 24.5473 0.446875 24.9941 1 24.9941H27C27.5531 24.9941 28 24.5473 28 23.9941V3.99414C28 3.44102 27.5531 2.99414 27 2.99414ZM25.75 6.45664V22.7441H2.25V6.45664L1.3875 5.78477L2.61562 4.20664L3.95312 5.24727H24.05L25.3875 4.20664L26.6156 5.78477L25.75 6.45664ZM24.05 5.24414L14 13.0566L3.95 5.24414L2.6125 4.20352L1.38438 5.78164L2.24687 6.45352L12.9219 14.7535C13.2289 14.992 13.6066 15.1215 13.9953 15.1215C14.3841 15.1215 14.7618 14.992 15.0688 14.7535L25.75 6.45664L26.6125 5.78477L25.3844 4.20664L24.05 5.24414Z" fill="white"/>
</g>
<defs>
<clipPath id="clip0">
<rect width="28" height="28" fill="white"/>
</clipPath>
</defs>
</svg>
