<svg width="24" height="28" viewBox="0 0 24 28" fill="none" xmlns="http://www.w3.org/2000/svg">
<g clip-path="url(#clip0)">
<path d="M12.0054 7.71094C8.59822 7.71094 5.85 10.5164 5.85 13.9945C5.85 17.4727 8.59822 20.2781 12.0054 20.2781C15.4125 20.2781 18.1607 17.4727 18.1607 13.9945C18.1607 10.5164 15.4125 7.71094 12.0054 7.71094ZM12.0054 18.0797C9.80357 18.0797 8.00357 16.2477 8.00357 13.9945C8.00357 11.7414 9.79822 9.90938 12.0054 9.90938C14.2125 9.90938 16.0071 11.7414 16.0071 13.9945C16.0071 16.2477 14.2071 18.0797 12.0054 18.0797ZM19.8482 7.45391C19.8482 8.26875 19.2054 8.91954 18.4125 8.91954C17.6143 8.91954 16.9768 8.26329 16.9768 7.45391C16.9768 6.64454 17.6196 5.98829 18.4125 5.98829C19.2054 5.98829 19.8482 6.64454 19.8482 7.45391ZM23.925 8.94141C23.8339 6.97813 23.3946 5.23907 21.9857 3.80625C20.5821 2.37344 18.8786 1.925 16.9554 1.82657C14.9732 1.71172 9.03215 1.71172 7.05 1.82657C5.13215 1.91953 3.42858 2.36797 2.01965 3.80078C0.610719 5.2336 0.17679 6.97266 0.0803619 8.93594C-0.0321381 10.9594 -0.0321381 17.0242 0.0803619 19.0477C0.171433 21.0109 0.610719 22.75 2.01965 24.1828C3.42858 25.6156 5.12679 26.0641 7.05 26.1625C9.03215 26.2774 14.9732 26.2774 16.9554 26.1625C18.8786 26.0695 20.5821 25.6211 21.9857 24.1828C23.3893 22.75 23.8286 21.0109 23.925 19.0477C24.0375 17.0242 24.0375 10.9648 23.925 8.94141ZM21.3643 21.2188C20.9464 22.2906 20.1375 23.1164 19.0821 23.5484C17.5018 24.1883 13.7518 24.0406 12.0054 24.0406C10.2589 24.0406 6.50357 24.1828 4.92858 23.5484C3.87858 23.1219 3.06965 22.2961 2.64643 21.2188C2.01965 19.6055 2.16429 15.7774 2.16429 13.9945C2.16429 12.2117 2.025 8.37813 2.64643 6.77032C3.06429 5.69844 3.87322 4.87266 4.92858 4.44063C6.50893 3.80078 10.2589 3.94844 12.0054 3.94844C13.7518 3.94844 17.5071 3.80625 19.0821 4.44063C20.1321 4.86719 20.9411 5.69297 21.3643 6.77032C21.9911 8.3836 21.8464 12.2117 21.8464 13.9945C21.8464 15.7774 21.9911 19.6109 21.3643 21.2188Z" fill="#333333"/>
</g>
<defs>
<clipPath id="clip0">
<rect width="24" height="28" fill="white"/>
</clipPath>
</defs>
</svg>
