<svg width="25" height="28" viewBox="0 0 25 28" fill="none" xmlns="http://www.w3.org/2000/svg">
<g clip-path="url(#clip0)">
<path d="M20.9109 5.31016C18.6106 3.01328 15.5473 1.75 12.2918 1.75C5.57221 1.75 0.104307 7.19688 0.104307 13.8906C0.104307 16.0289 0.664274 18.118 1.72931 19.9609L0 26.25L6.46157 24.5602C8.24029 25.5281 10.2441 26.0367 12.2863 26.0367H12.2918C19.0059 26.0367 24.5946 20.5898 24.5946 13.8961C24.5946 10.6531 23.2111 7.60703 20.9109 5.31016ZM12.2918 23.9914C10.4692 23.9914 8.68497 23.5047 7.13133 22.5859L6.76351 22.3672L2.93159 23.368L3.9527 19.6438L3.71115 19.2609C2.69552 17.6531 2.16301 15.7992 2.16301 13.8906C2.16301 8.32891 6.70861 3.80078 12.2973 3.80078C15.0038 3.80078 17.5456 4.85078 19.4561 6.75938C21.3666 8.66797 22.5414 11.2 22.5359 13.8961C22.5359 19.4633 17.875 23.9914 12.2918 23.9914ZM17.8476 16.4336C17.5456 16.2805 16.0469 15.5477 15.7669 15.4492C15.4869 15.3453 15.2838 15.2961 15.0807 15.6023C14.8775 15.9086 14.2956 16.5867 14.1144 16.7945C13.9388 16.9969 13.7576 17.0242 13.4557 16.8711C11.666 15.9797 10.4911 15.2797 9.31081 13.2617C8.99789 12.7258 9.62373 12.7641 10.2057 11.6047C10.3045 11.4023 10.2551 11.2273 10.1782 11.0742C10.1014 10.9211 9.49198 9.42813 9.23944 8.82109C8.9924 8.23047 8.73987 8.3125 8.55321 8.30156C8.37753 8.29063 8.17441 8.29063 7.97128 8.29063C7.76816 8.29063 7.43877 8.36719 7.15878 8.66797C6.8788 8.97422 6.09375 9.70703 6.09375 11.2C6.09375 12.693 7.18623 14.1367 7.33446 14.3391C7.48818 14.5414 9.481 17.6039 12.5389 18.9219C14.4713 19.7531 15.2289 19.8242 16.1951 19.682C16.7825 19.5945 17.9958 18.9492 18.2483 18.2383C18.5008 17.5273 18.5008 16.9203 18.424 16.7945C18.3526 16.6578 18.1495 16.5813 17.8476 16.4336Z" fill="#333333"/>
</g>
<defs>
<clipPath id="clip0">
<rect width="24.5946" height="28" fill="white"/>
</clipPath>
</defs>
</svg>
