<svg width="24" height="28" viewBox="0 0 24 28" fill="none" xmlns="http://www.w3.org/2000/svg">
<g clip-path="url(#clip0)">
<path d="M12.0053 7.71074C8.5982 7.71074 5.84999 10.5162 5.84999 13.9943C5.84999 17.4725 8.5982 20.2779 12.0053 20.2779C15.4125 20.2779 18.1607 17.4725 18.1607 13.9943C18.1607 10.5162 15.4125 7.71074 12.0053 7.71074ZM12.0053 18.0795C9.80356 18.0795 8.00356 16.2475 8.00356 13.9943C8.00356 11.7412 9.7982 9.90918 12.0053 9.90918C14.2125 9.90918 16.0071 11.7412 16.0071 13.9943C16.0071 16.2475 14.2071 18.0795 12.0053 18.0795ZM19.8482 7.45371C19.8482 8.26856 19.2053 8.91934 18.4125 8.91934C17.6143 8.91934 16.9768 8.26309 16.9768 7.45371C16.9768 6.64434 17.6196 5.98809 18.4125 5.98809C19.2053 5.98809 19.8482 6.64434 19.8482 7.45371ZM23.925 8.94121C23.8339 6.97793 23.3946 5.23887 21.9857 3.80606C20.5821 2.37324 18.8786 1.9248 16.9553 1.82637C14.9732 1.71152 9.03213 1.71152 7.04999 1.82637C5.13213 1.91934 3.42856 2.36777 2.01963 3.80059C0.610704 5.2334 0.176775 6.97246 0.0803467 8.93574C-0.0321533 10.9592 -0.0321533 17.024 0.0803467 19.0475C0.171418 21.0107 0.610704 22.7498 2.01963 24.1826C3.42856 25.6154 5.12677 26.0639 7.04999 26.1623C9.03213 26.2772 14.9732 26.2772 16.9553 26.1623C18.8786 26.0693 20.5821 25.6209 21.9857 24.1826C23.3893 22.7498 23.8286 21.0107 23.925 19.0475C24.0375 17.024 24.0375 10.9647 23.925 8.94121ZM21.3643 21.2186C20.9464 22.2904 20.1375 23.1162 19.0821 23.5482C17.5018 24.1881 13.7518 24.0404 12.0053 24.0404C10.2589 24.0404 6.50356 24.1826 4.92856 23.5482C3.87856 23.1217 3.06963 22.2959 2.64642 21.2186C2.01963 19.6053 2.16427 15.7772 2.16427 13.9943C2.16427 12.2115 2.02499 8.37793 2.64642 6.77012C3.06427 5.69824 3.8732 4.87246 4.92856 4.44043C6.50892 3.80059 10.2589 3.94824 12.0053 3.94824C13.7518 3.94824 17.5071 3.80606 19.0821 4.44043C20.1321 4.86699 20.9411 5.69277 21.3643 6.77012C21.9911 8.3834 21.8464 12.2115 21.8464 13.9943C21.8464 15.7772 21.9911 19.6107 21.3643 21.2186Z" fill="white"/>
</g>
<defs>
<clipPath id="clip0">
<rect width="24" height="28" fill="white"/>
</clipPath>
</defs>
</svg>
