<svg width="15" height="20" viewBox="0 0 15 20" fill="none" xmlns="http://www.w3.org/2000/svg">
<g clip-path="url(#clip0)">
<path d="M3.80195 19.8035C-1.27125 14.7303 -1.26371 6.51237 3.80195 1.44671C4.02453 1.22413 4.36941 1.18765 4.63254 1.3521L7.16445 2.93464C7.29796 3.01807 7.3979 3.14577 7.4468 3.29542C7.49571 3.44506 7.49046 3.60714 7.43199 3.75331L6.16606 6.91819C6.11198 7.05339 6.01541 7.16734 5.89091 7.24286C5.76642 7.31839 5.62075 7.35139 5.47586 7.3369L3.29578 7.11893C2.47348 9.39475 2.49063 11.903 3.29578 14.1312L5.4759 13.9132C5.62079 13.8987 5.76646 13.9317 5.89095 14.0073C6.01545 14.0828 6.11201 14.1967 6.16609 14.3319L7.43203 17.4969C7.49049 17.643 7.49573 17.8051 7.44683 17.9547C7.39793 18.1044 7.29799 18.2321 7.16449 18.3155L4.63258 19.8981C4.50382 19.9785 4.3516 20.013 4.20075 19.9958C4.0499 19.9786 3.90932 19.9108 3.80195 19.8035ZM9.65324 3.72952C10.1154 4.51261 10.1154 5.48764 9.65324 6.27073C9.49895 6.53218 9.14121 6.58163 8.92207 6.37155L8.68867 6.14788C8.5359 6.00147 8.50145 5.77202 8.60035 5.58499C8.69554 5.40473 8.7453 5.20397 8.7453 5.00012C8.7453 4.79628 8.69554 4.59552 8.60035 4.41526C8.50141 4.22823 8.5359 3.99878 8.68867 3.85237L8.92207 3.6287C9.14121 3.41862 9.49895 3.46807 9.65324 3.72952ZM13.2387 0.167528C15.5879 2.96456 15.586 7.03792 13.2387 9.83268C13.0639 10.0408 12.7492 10.0571 12.553 9.86913L12.3266 9.65206C12.1484 9.48132 12.1321 9.20171 12.2902 9.01225C14.2311 6.68655 14.2295 3.31175 12.2902 0.987958C12.1321 0.798505 12.1484 0.518895 12.3266 0.348153L12.553 0.131083C12.7492 -0.056925 13.0639 -0.0405578 13.2387 0.167528ZM11.4429 1.92304C12.8511 3.73249 12.8534 6.26479 11.4429 8.07718C11.2714 8.29753 10.9469 8.32135 10.7454 8.12811L10.5181 7.91018C10.3463 7.74538 10.3229 7.47678 10.4679 7.28788C11.5045 5.93772 11.5044 4.06241 10.4679 2.71233C10.3229 2.52343 10.3463 2.25487 10.5181 2.09003L10.7454 1.8721C10.9469 1.67886 11.2714 1.70268 11.4429 1.92304Z" fill="#333333"/>
</g>
<defs>
<clipPath id="clip0">
<rect width="15" height="20" fill="white"/>
</clipPath>
</defs>
</svg>
