<svg width="28" height="28" viewBox="0 0 28 28" fill="none" xmlns="http://www.w3.org/2000/svg">
<circle cx="14" cy="14" r="14" fill="#F4F4F4"/>
<g clip-path="url(#clip0)">
<path d="M9.80194 23.8034C4.72874 18.7301 4.73627 10.5123 9.80194 5.4466C10.0245 5.22402 10.3694 5.18753 10.6325 5.35199L13.1644 6.93453C13.2979 7.01796 13.3979 7.14566 13.4468 7.29531C13.4957 7.44495 13.4904 7.60703 13.432 7.7532L12.166 10.9181C12.112 11.0533 12.0154 11.1672 11.8909 11.2428C11.7664 11.3183 11.6207 11.3513 11.4758 11.3368L9.29577 11.1188C8.47346 13.3946 8.49061 15.9028 9.29577 18.1311L11.4759 17.9131C11.6208 17.8986 11.7664 17.9316 11.8909 18.0072C12.0154 18.0827 12.112 18.1966 12.1661 18.3318L13.432 21.4967C13.4905 21.6429 13.4957 21.805 13.4468 21.9546C13.3979 22.1043 13.298 22.232 13.1645 22.3154L10.6326 23.898C10.5038 23.9784 10.3516 24.0129 10.2007 23.9957C10.0499 23.9785 9.9093 23.9107 9.80194 23.8034ZM15.6532 7.72941C16.1154 8.51249 16.1154 9.48753 15.6532 10.2706C15.4989 10.5321 15.1412 10.5815 14.9221 10.3714L14.6887 10.1478C14.5359 10.0014 14.5014 9.77191 14.6003 9.58488C14.6955 9.40462 14.7453 9.20386 14.7453 9.00001C14.7453 8.79617 14.6955 8.59541 14.6003 8.41515C14.5014 8.22812 14.5359 7.99867 14.6887 7.85226L14.9221 7.62859C15.1412 7.41851 15.4989 7.46796 15.6532 7.72941ZM19.2387 4.16742C21.5879 6.96445 21.586 11.0378 19.2387 13.8326C19.0639 14.0407 18.7492 14.057 18.553 13.869L18.3265 13.6519C18.1484 13.4812 18.1321 13.2016 18.2902 13.0121C20.2311 10.6864 20.2295 7.31164 18.2902 4.98785C18.1321 4.79839 18.1484 4.51878 18.3265 4.34804L18.553 4.13097C18.7492 3.94296 19.0639 3.95933 19.2387 4.16742ZM17.4429 5.92292C18.8511 7.73238 18.8533 10.2647 17.4429 12.0771C17.2714 12.2974 16.9469 12.3212 16.7454 12.128L16.5181 11.9101C16.3462 11.7453 16.3229 11.4767 16.4679 11.2878C17.5045 9.93761 17.5044 8.0623 16.4679 6.71222C16.3229 6.52332 16.3462 6.25476 16.5181 6.08992L16.7454 5.87199C16.9469 5.67875 17.2714 5.70257 17.4429 5.92292Z" fill="#333333"/>
</g>
<defs>
<clipPath id="clip0">
<rect x="6" y="4" width="15" height="20" fill="white"/>
</clipPath>
</defs>
</svg>
