<svg width="100" height="100" viewBox="0 0 100 100" fill="none" xmlns="http://www.w3.org/2000/svg">
<g clip-path="url(#clip0)">
<path d="M50.0001 100C77.6144 100 100 77.6144 100 50.0001C100 22.3858 77.6144 0 50.0001 0C22.3858 0 0 22.3858 0 50.0001C0 77.6144 22.3858 100 50.0001 100Z" fill="#E24C4B"/>
<path d="M99.9999 50.0001C99.9999 77.5002 77.4999 100 49.9998 100C34.0624 100 19.9999 92.8127 10.9373 81.2502C19.3748 88.1253 30.3123 92.1878 42.1872 92.1878C69.6873 92.1878 92.1873 69.6878 92.1873 42.1877C92.1873 30.3128 88.1248 19.3752 81.2497 10.9377C92.8124 19.9999 99.9999 34.0624 99.9999 50.0001Z" fill="#D1403F"/>
<path d="M72.8126 72.8126C70.9377 74.6875 67.8125 74.6875 65.9376 72.8126L50.0002 56.8752L34.0627 72.8126C32.1878 74.6875 29.0626 74.6875 27.1877 72.8126C25.3128 70.9377 25.3128 67.8125 27.1877 65.9376L43.1251 50.0002L27.1877 34.0627C25.3128 32.1878 25.3128 29.0626 27.1877 27.1877C29.0626 25.3128 32.1878 25.3128 34.0627 27.1877L50.0002 43.1251L65.9376 27.1877C67.8125 25.3128 70.9377 25.3128 72.8126 27.1877C74.6875 29.0626 74.6875 32.1878 72.8126 34.0627L56.8752 50.0002L72.8126 65.9376C74.6875 67.8125 74.6875 70.9375 72.8126 72.8126Z" fill="white"/>
</g>
<defs>
<clipPath id="clip0">
<rect width="100" height="100" fill="white"/>
</clipPath>
</defs>
</svg>
