<svg width="22" height="22" viewBox="0 0 22 22" fill="none" xmlns="http://www.w3.org/2000/svg">
<path d="M21.6475 20.1716L14.6912 13.2153C15.7707 11.8198 16.3546 10.1136 16.3546 8.31892C16.3546 6.1707 15.5162 4.15642 14.0002 2.63767C12.4841 1.11892 10.4645 0.283203 8.31892 0.283203C6.17338 0.283203 4.15374 1.1216 2.63767 2.63767C1.11892 4.15374 0.283203 6.1707 0.283203 8.31892C0.283203 10.4645 1.1216 12.4841 2.63767 14.0002C4.15374 15.5189 6.1707 16.3546 8.31892 16.3546C10.1136 16.3546 11.8171 15.7707 13.2127 14.6939L20.1689 21.6475C20.1893 21.6679 20.2135 21.6841 20.2402 21.6951C20.2669 21.7062 20.2954 21.7119 20.3243 21.7119C20.3531 21.7119 20.3817 21.7062 20.4084 21.6951C20.435 21.6841 20.4592 21.6679 20.4796 21.6475L21.6475 20.4823C21.6679 20.4619 21.6841 20.4377 21.6951 20.411C21.7062 20.3844 21.7119 20.3558 21.7119 20.327C21.7119 20.2981 21.7062 20.2695 21.6951 20.2429C21.6841 20.2162 21.6679 20.192 21.6475 20.1716ZM12.5618 12.5618C11.4261 13.6948 9.92071 14.3189 8.31892 14.3189C6.71713 14.3189 5.21178 13.6948 4.07606 12.5618C2.94303 11.4261 2.31892 9.92071 2.31892 8.31892C2.31892 6.71713 2.94303 5.2091 4.07606 4.07606C5.21178 2.94303 6.71713 2.31892 8.31892 2.31892C9.92071 2.31892 11.4287 2.94035 12.5618 4.07606C13.6948 5.21178 14.3189 6.71713 14.3189 8.31892C14.3189 9.92071 13.6948 11.4287 12.5618 12.5618Z" fill="#333333"/>
</svg>
