<svg width="165" height="165" viewBox="0 0 165 165" fill="none" xmlns="http://www.w3.org/2000/svg">
<g clip-path="url(#clip0)">
<path d="M82.5002 165C128.064 165 165 128.064 165 82.5002C165 36.9366 128.064 0 82.5002 0C36.9366 0 0 36.9366 0 82.5002C0 128.064 36.9366 165 82.5002 165Z" fill="#357180"/>
<path d="M127.012 130.77C127.012 138.533 120.718 144.829 112.953 144.829H54.3775C46.6134 144.829 40.3188 138.535 40.3188 130.77V39.391C40.3188 31.6283 46.6134 25.3323 54.3775 25.3323H112.953C120.718 25.3323 127.012 31.6269 127.012 39.391V130.77Z" fill="#202121"/>
<path d="M61.6476 132.347C61.6476 133.417 60.7814 134.285 59.7105 134.285H51.6313C50.5604 134.285 49.6917 133.417 49.6917 132.347V124.275C49.6917 123.203 50.5607 122.335 51.6313 122.335H59.7105C60.7814 122.335 61.6476 123.204 61.6476 124.275V132.347Z" fill="#4E4E4E"/>
<path d="M75.5894 132.347C75.5894 133.417 74.7232 134.285 73.6536 134.285H65.573C64.5021 134.285 63.6335 133.417 63.6335 132.347V124.275C63.6335 123.203 64.5025 122.335 65.573 122.335H73.6536C74.7232 122.335 75.5894 123.204 75.5894 124.275V132.347Z" fill="#4E4E4E"/>
<path d="M89.5308 132.347C89.5308 133.417 88.6646 134.285 87.5951 134.285H79.5144C78.4449 134.285 77.5749 133.417 77.5749 132.347V124.275C77.5749 123.203 78.4449 122.335 79.5144 122.335H87.5951C88.6646 122.335 89.5308 123.204 89.5308 124.275V132.347Z" fill="#4E4E4E"/>
<path d="M61.6476 118.404C61.6476 119.475 60.7814 120.342 59.7105 120.342H51.6313C50.5604 120.342 49.6917 119.473 49.6917 118.404V110.332C49.6917 109.261 50.5607 108.394 51.6313 108.394H59.7105C60.7814 108.394 61.6476 109.263 61.6476 110.332V118.404Z" fill="#4E4E4E"/>
<path d="M75.5894 118.404C75.5894 119.475 74.7232 120.342 73.6536 120.342H65.573C64.5021 120.342 63.6335 119.473 63.6335 118.404V110.332C63.6335 109.261 64.5025 108.394 65.573 108.394H73.6536C74.7232 108.394 75.5894 109.263 75.5894 110.332V118.404Z" fill="#4E4E4E"/>
<path d="M89.5308 118.404C89.5308 119.475 88.6646 120.342 87.5951 120.342H79.5144C78.4449 120.342 77.5749 119.473 77.5749 118.404V110.332C77.5749 109.261 78.4449 108.394 79.5144 108.394H87.5951C88.6646 108.394 89.5308 109.263 89.5308 110.332V118.404Z" fill="#4E4E4E"/>
<path d="M61.6476 104.462C61.6476 105.533 60.7814 106.401 59.7105 106.401H51.6313C50.5604 106.401 49.6917 105.532 49.6917 104.462V96.3907C49.6917 95.3198 50.5607 94.4521 51.6313 94.4521H59.7105C60.7814 94.4521 61.6476 95.3211 61.6476 96.3907V104.462Z" fill="#4E4E4E"/>
<path d="M75.5894 104.462C75.5894 105.533 74.7232 106.401 73.6536 106.401H65.573C64.5021 106.401 63.6335 105.532 63.6335 104.462V96.3907C63.6335 95.3198 64.5025 94.4521 65.573 94.4521H73.6536C74.7232 94.4521 75.5894 95.3211 75.5894 96.3907V104.462Z" fill="#4E4E4E"/>
<path d="M89.5308 104.462C89.5308 105.533 88.6646 106.401 87.5951 106.401H79.5144C78.4449 106.401 77.5749 105.532 77.5749 104.462V96.3907C77.5749 95.3198 78.4449 94.4521 79.5144 94.4521H87.5951C88.6646 94.4521 89.5308 95.3211 89.5308 96.3907V104.462Z" fill="#4E4E4E"/>
<path d="M61.6476 90.5208C61.6476 91.5917 60.7814 92.4593 59.7105 92.4593H51.6313C50.5604 92.4593 49.6917 91.5903 49.6917 90.5208V82.4493C49.6917 81.3783 50.5607 80.5107 51.6313 80.5107H59.7105C60.7814 80.5107 61.6476 81.3797 61.6476 82.4493V90.5208Z" fill="#4E4E4E"/>
<path d="M117.883 69.4325C117.883 70.5034 117.015 71.3721 115.944 71.3721H51.6313C50.5604 71.3721 49.6917 70.5031 49.6917 69.4325V37.9307C49.6917 36.8598 50.5607 35.9922 51.6313 35.9922H115.944C117.015 35.9922 117.883 36.8612 117.883 37.9307V69.4325Z" fill="#4E4E4E"/>
<path d="M115.539 66.5082C115.539 67.5046 114.731 68.3137 113.734 68.3137H53.8421C52.8429 68.3137 52.0338 67.5046 52.0338 66.5082V40.8553C52.0338 39.8589 52.8429 39.0498 53.8421 39.0498H113.735C114.733 39.0498 115.541 39.8589 115.541 40.8553V66.5082H115.539Z" fill="#74C59C"/>
<path d="M75.5893 90.5208C75.5893 91.5917 74.7231 92.4593 73.6536 92.4593H65.573C64.5021 92.4593 63.6334 91.5903 63.6334 90.5208V82.4493C63.6334 81.3783 64.5024 80.5107 65.573 80.5107H73.6536C74.7231 80.5107 75.5893 81.3797 75.5893 82.4493V90.5208Z" fill="#4E4E4E"/>
<path d="M89.5307 90.5208C89.5307 91.5917 88.6645 92.4593 87.595 92.4593H79.5144C78.4449 92.4593 77.5748 91.5903 77.5748 90.5208V82.4493C77.5748 81.3783 78.4449 80.5107 79.5144 80.5107H87.595C88.6645 80.5107 89.5307 81.3797 89.5307 82.4493V90.5208Z" fill="#4E4E4E"/>
<path d="M115.711 122.335H101.77H100.602H93.6901C92.6192 122.335 91.7492 123.204 91.7492 124.275V132.347C91.7492 133.417 92.6192 134.285 93.6901 134.285H100.604H101.771H115.712C116.782 134.285 117.651 133.417 117.651 132.347V124.275C117.65 123.203 116.781 122.335 115.711 122.335Z" fill="#E79E2D"/>
<path d="M103.707 118.404C103.707 119.475 102.839 120.342 101.77 120.342H93.6905C92.6195 120.342 91.7495 119.473 91.7495 118.404V110.332C91.7495 109.261 92.6195 108.394 93.6905 108.394H101.77C102.839 108.394 103.707 109.263 103.707 110.332V118.404Z" fill="#63BD6E"/>
<path d="M117.65 118.404C117.65 119.475 116.781 120.342 115.711 120.342H107.63C106.561 120.342 105.692 119.473 105.692 118.404V110.332C105.692 109.261 106.561 108.394 107.63 108.394H115.711C116.781 108.394 117.65 109.263 117.65 110.332V118.404Z" fill="#63BD6E"/>
<path d="M103.707 104.462C103.707 105.533 102.839 106.401 101.77 106.401H93.6905C92.6195 106.401 91.7495 105.532 91.7495 104.462V96.3909C91.7495 95.32 92.6195 94.4524 93.6905 94.4524H101.77C102.839 94.4524 103.707 95.3214 103.707 96.3909V104.462Z" fill="#67B8CB"/>
<path d="M117.65 104.462C117.65 105.533 116.781 106.401 115.711 106.401H107.63C106.561 106.401 105.692 105.532 105.692 104.462V96.3909C105.692 95.32 106.561 94.4524 107.63 94.4524H115.711C116.781 94.4524 117.65 95.3214 117.65 96.3909V104.462Z" fill="#67B8CB"/>
<path d="M103.707 90.5208C103.707 91.5917 102.839 92.4593 101.77 92.4593H93.6905C92.6195 92.4593 91.7495 91.5903 91.7495 90.5208V82.4493C91.7495 81.3783 92.6195 80.5107 93.6905 80.5107H101.77C102.839 80.5107 103.707 81.3797 103.707 82.4493V90.5208Z" fill="#E84849"/>
<path d="M117.65 90.5208C117.65 91.5917 116.781 92.4593 115.711 92.4593H107.63C106.561 92.4593 105.692 91.5903 105.692 90.5208V82.4493C105.692 81.3783 106.561 80.5107 107.63 80.5107H115.711C116.781 80.5107 117.65 81.3797 117.65 82.4493V90.5208Z" fill="#E84849"/>
<path opacity="0.15" d="M52.1379 66.5082V40.8553C52.1379 39.8589 52.948 39.0498 53.9462 39.0498H80.1241L109.389 68.3137H53.9462C52.9484 68.3137 52.1379 67.5046 52.1379 66.5082Z" fill="black"/>
</g>
<defs>
<clipPath id="clip0">
<rect width="165" height="165" fill="white"/>
</clipPath>
</defs>
</svg>
