<svg width="165" height="165" viewBox="0 0 165 165" fill="none" xmlns="http://www.w3.org/2000/svg">
<path d="M165 82.5C165 128.064 128.064 165 82.5 165C36.9359 165 0 128.064 0 82.5C0 36.9359 36.9359 0 82.5 0C128.064 0 165 36.9359 165 82.5Z" fill="#FA5D0F"/>
<path d="M165 82.4999C165 73.8831 163.677 65.5759 161.226 57.7686L139.473 36.0156L25.527 119.639L69.9367 164.049C74.033 164.675 78.2287 165 82.5 165C128.064 165 165 128.064 165 82.4999Z" fill="#EF3800"/>
<path d="M60.8264 43.75H25.527V119.639H60.8264C68.3631 119.639 75.6179 122.514 81.109 127.676L82.5 128.984V53.0957L81.109 51.7865C75.6179 46.624 68.3631 43.75 60.8264 43.75Z" fill="#4A7AFF"/>
<path d="M104.174 43.75H139.473V119.639H104.174C96.6369 119.639 89.3821 122.514 83.891 127.676L82.5 128.984V53.0957L83.891 51.7865C89.3821 46.624 96.6369 43.75 104.174 43.75Z" fill="#2864F0"/>
<path d="M60.8264 36.0156H25.527V111.904H60.8264C68.3631 111.904 75.6179 114.779 81.109 119.942L82.5 121.25V45.3613L81.109 44.0521C75.6179 38.8896 68.3631 36.0156 60.8264 36.0156Z" fill="white"/>
<path d="M104.174 36.0156H139.473V111.904H104.174C96.6369 111.904 89.3821 114.779 83.891 119.942L82.5 121.25V45.3613L83.891 44.0521C89.3821 38.8896 96.6369 36.0156 104.174 36.0156Z" fill="#E9EDF5"/>
<path d="M33.5156 46.1191H66.709V52.2422H33.5156V46.1191Z" fill="#E9EDF5"/>
<path d="M33.5156 59.0098H66.709V65.1328H33.5156V59.0098Z" fill="#E9EDF5"/>
<path d="M33.5156 71.9004H66.709V78.0234H33.5156V71.9004Z" fill="#E9EDF5"/>
<path d="M33.5156 84.791H66.709V90.9141H33.5156V84.791Z" fill="#E9EDF5"/>
<path d="M33.5156 97.6816H66.709V103.805H33.5156V97.6816Z" fill="#E9EDF5"/>
<path d="M98.291 46.1191H131.484V52.2422H98.291V46.1191Z" fill="#CDD2E1"/>
<path d="M98.291 59.0098H131.484V65.1328H98.291V59.0098Z" fill="#CDD2E1"/>
<path d="M98.291 71.9004H131.484V78.0234H98.291V71.9004Z" fill="#CDD2E1"/>
<path d="M98.291 84.791H131.484V90.9141H98.291V84.791Z" fill="#CDD2E1"/>
<path d="M98.291 97.6816H131.484V103.805H98.291V97.6816Z" fill="#CDD2E1"/>
</svg>
