<svg width="165" height="165" viewBox="0 0 165 165" fill="none" xmlns="http://www.w3.org/2000/svg">
<path d="M82.5 165C128.063 165 165 128.063 165 82.5C165 36.9365 128.063 0 82.5 0C36.9365 0 0 36.9365 0 82.5C0 128.063 36.9365 165 82.5 165Z" fill="#E05B49"/>
<path opacity="0.1" d="M131.168 43.7227C130.036 42.0965 129.625 43.6109 129.625 43.6109C129.625 43.6109 129.153 41.0786 122.371 42.0468C115.676 43.0027 112.229 51.593 111.42 56.7819L95.9033 41.2896C94.4101 39.7752 92.3072 38.4717 91.125 38.5958C89.6318 38.7448 89.9055 38 88.263 38C86.6205 38 86.3467 38.6703 85.1645 38.9558C83.9824 39.2537 82.0536 38 79.7392 39.6262C77.4122 41.2524 77.4993 41.5503 76.5661 42.5807C75.6453 43.6109 77.5491 44.6537 74.2391 45.8331C70.9291 47.0123 73.0445 53.2192 73.0445 53.2192C73.0445 53.2192 71.7255 55.2923 72.6712 56.6951C72.9823 57.1544 72.8827 58.5695 72.9699 59.8853L57.0048 43.9461L56.9924 43.971C55.8102 42.8662 54.0059 43.6109 54.0059 43.6109C54.0059 43.6109 53.533 41.0786 46.7638 42.0468C39.982 43.0151 36.5227 51.804 35.7761 56.9681C35.6144 58.0357 35.6019 59.066 35.689 60.0095C35.9006 62.3681 33.6358 63.8453 31.6822 63.3612L28.957 60.6426C28.957 60.6426 29.4796 73.2798 36.0499 74.1239L31.284 76.2963C30.1018 76.9418 29.0442 77.7859 28.1358 78.779C26.1199 81.0011 25 83.8935 25 86.8976V96.2327C25 97.3376 25.4231 98.3431 26.1075 99.1003L26.095 99.1127L26.2194 99.2244C26.2444 99.2617 26.2817 99.2989 26.319 99.3237L91.168 164C132.437 161.03 165 126.713 165 84.7852C165 82.1903 164.866 79.6272 164.622 77.096L131.168 43.7227Z" fill="black"/>
<path d="M112.883 57.9788H124.032V83.7692H112.883V57.9788Z" fill="#F7BE56"/>
<path d="M136.994 76.7952C136.137 75.852 135.128 75.0567 134.009 74.444L124.032 69.7642C124.031 69.7647 124.031 69.7648 124.03 69.7654C123.921 70.9259 123.4 72.0381 122.512 72.7916C120.215 74.739 116.754 74.7542 114.439 72.8358C113.558 72.1058 113.024 71.0371 112.884 69.9017L112.883 69.8915L102.903 74.444C101.784 75.0567 100.775 75.852 99.9213 76.7952C98.0038 78.9054 96.9435 81.6526 96.9435 84.503V93.3727C96.9435 95.6268 98.7707 97.454 101.025 97.454H135.89C138.144 97.454 139.972 95.6268 139.972 93.3727V84.503C139.972 81.6526 138.911 78.9054 136.994 76.7952Z" fill="#EBF0F3"/>
<path d="M118.457 71.5311C123.484 71.5311 127.559 66.0323 127.559 59.2492C127.559 52.4661 123.484 46.9673 118.457 46.9673C113.43 46.9673 109.355 52.4661 109.355 59.2492C109.355 66.0323 113.43 71.5311 118.457 71.5311Z" fill="#FCD462"/>
<path d="M128.852 53.3714C128.128 48.0826 126.956 45.064 125.884 43.5186C124.812 41.9732 124.426 43.4104 124.426 43.4104C124.426 43.4104 123.977 41.0038 117.557 41.9232C111.137 42.8427 107.865 51.1854 107.152 56.0884C106.691 59.2612 107.582 61.9654 108.269 63.4842C108.296 63.9791 108.521 65.6952 108.484 66.1238C108.374 67.38 109.306 68.4808 110.563 68.5742C111.792 68.6653 112.839 67.6939 112.84 66.4621C112.698 65.6717 112.411 64.913 111.991 64.2284C111.556 63.519 111.185 62.8792 111.185 62.8792C111.185 62.8792 109.43 55.4896 113.66 53.9888C117.889 52.4879 119.393 51.9713 119.393 51.9713C119.417 52.6013 115.74 55.7733 115.74 55.7733C123.501 54.6967 125.286 51.5711 125.286 51.5711C125.286 51.5711 126.541 55.3637 126.345 58.9373C126.15 62.5109 124.767 65.9717 124.836 66.517C125.015 67.9121 126.446 68.8775 127.905 68.4964C128.918 68.232 129.62 67.3086 129.699 66.2652C129.726 65.9143 129.756 65.5515 129.791 65.1756C130.123 61.6483 129.577 58.6603 128.852 53.3714Z" fill="#3A556A"/>
<path d="M41.264 57.979H52.4137V83.7694H41.264V57.979Z" fill="#F7BE56"/>
<path d="M65.3751 76.7952C64.518 75.852 63.5093 75.0567 62.3905 74.444L52.4137 69.7642C52.4127 69.7647 52.4126 69.7648 52.4116 69.7654C52.3025 70.9259 51.7817 72.0381 50.8931 72.7916C48.5962 74.739 45.135 74.7542 42.8201 72.8358C41.9393 72.1058 41.405 71.0371 41.2653 69.9017L41.2641 69.8915L31.2839 74.444C30.165 75.0567 29.1564 75.852 28.3027 76.7952C26.3852 78.9054 25.3248 81.6526 25.3248 84.503V93.3727C25.3248 95.6268 27.1521 97.454 29.4061 97.454H64.2716C66.5257 97.454 68.3529 95.6268 68.3529 93.3727V84.503C68.3529 81.6526 67.2926 78.9054 65.3751 76.7952Z" fill="#44C4A1"/>
<path d="M55.9414 59.2494C55.9414 66.0325 51.8661 71.5312 46.8389 71.5312C41.8118 71.5312 37.7365 66.0325 37.7365 59.2494C37.7365 52.4664 42.2496 45.6035 47.2768 45.6035C52.304 45.6035 55.9414 52.4664 55.9414 59.2494Z" fill="#FCD462"/>
<path d="M64.5801 60.9079C62.7899 63.3806 58.8369 61.9479 59.0807 58.905C59.1922 57.5138 59.1824 55.9283 58.9096 53.9363C58.1853 48.6474 57.0134 45.6288 55.9414 44.0834C54.8696 42.538 52.8078 43.4104 52.8078 43.4104C52.8078 43.4104 52.3583 41.0038 45.9381 41.9232C39.5179 42.8427 36.2464 51.1854 35.5333 56.0884C35.385 57.1084 35.3767 58.0781 35.4564 58.9752C35.7204 61.9461 31.8369 63.4562 30.0393 61.0762C29.718 60.6508 29.3963 60.1543 29.077 59.5768C29.077 59.5768 29.8895 79.1408 42.3807 69.9943L41.0427 67.3103C39.8169 64.721 39.5664 62.8792 39.5664 62.8792C39.5664 62.8792 37.5589 53.76 42.0411 53.9888C51.8414 54.4889 52.7416 49.5839 52.7416 49.5839C52.7416 49.5839 54.8322 55.3599 54.7265 58.9373C54.6202 62.5348 54.4247 64.1865 53.9677 65.6805C53.59 66.9155 52.9624 68.0597 52.1635 69.0744L51.7694 69.575C64.2606 78.7216 65.418 59.5768 65.418 59.5768C65.1399 60.0797 64.86 60.5213 64.5801 60.9079Z" fill="#3A556A"/>
<path d="M89.9581 81.1093L82.673 83.5546L75.9513 81.1093V62.0535H89.9581V81.1093Z" fill="#F7BE56"/>
<path d="M106.241 85.6914C105.165 84.5065 103.898 83.5075 102.492 82.7376L93.4707 77.7946L91.9959 76.9858L91.1353 77.1545C91.1175 77.2975 91.0979 77.4519 91.077 77.6154L82.7258 83.3251L74.847 77.6584C74.8241 77.4805 74.8029 77.3131 74.7836 77.1589L73.9143 76.9858L72.4612 77.7816L63.414 82.7376C62.0085 83.5075 60.7413 84.5065 59.6688 85.6914C57.2599 88.3424 55.928 91.7936 55.928 95.3744V112.393C55.928 115.225 58.2241 117.521 61.0565 117.521H104.854C107.686 117.521 109.982 115.225 109.982 112.393V95.3744C109.982 91.7936 108.65 88.3424 106.241 85.6914Z" fill="#27A2DB"/>
<path d="M89.9581 73.4109L84.1917 81.3454L88.7759 86.2877L91.995 76.9878L89.9581 73.4109Z" fill="#EBF0F3"/>
<path d="M75.9036 73.4109L81.6701 81.3454L77.0859 86.2877L73.8667 76.9878L75.9036 73.4109Z" fill="#EBF0F3"/>
<path d="M95.0943 59.0329C95.3419 57.5244 94.9562 56.2053 94.2328 56.0866C93.5094 55.9679 92.7223 57.0945 92.4747 58.6029C92.2271 60.1114 92.6128 61.4305 93.3362 61.5492C94.0596 61.6679 94.8467 60.5414 95.0943 59.0329Z" fill="#FCD462"/>
<path d="M72.5814 61.5052C73.3122 61.4524 73.8153 60.1744 73.7053 58.6506C73.5953 57.1269 72.9137 55.9344 72.183 55.9872C71.4522 56.04 70.9491 57.318 71.0591 58.8417C71.1691 60.3655 71.8507 61.5579 72.5814 61.5052Z" fill="#FCD462"/>
<path d="M93.2286 61.7147L92.8158 49.5301L91.3711 45.6015L82.9279 43.324L74.4846 45.6015L73.0399 49.5301L72.6271 61.7147C72.6271 61.7147 72.1455 64.6754 73.2463 66.839C74.347 69.0027 75.379 69.9907 76.8238 71.4325C78.2685 72.8744 80.1571 73.3215 82.9279 73.4111C85.6987 73.3215 87.5872 72.8744 89.032 71.4325C90.4767 69.9907 91.5087 69.0027 92.6094 66.839C93.7102 64.6754 93.2286 61.7147 93.2286 61.7147Z" fill="#FCD462"/>
<path d="M81.6211 87.2397V105.095H83.725V87.2397C83.9994 82.8749 85.5251 81.642 85.5251 81.642L84.6397 80.6875L82.7592 82.9332L81.1777 80.6875L79.8209 81.642C79.8209 81.642 81.3467 82.8749 81.6211 87.2397Z" fill="#EBF0F3"/>
<path d="M83.4587 47.9733C83.9625 47.8849 86.34 47.4822 88.3417 47.9733C90.3435 48.4644 91.7893 50.9198 91.7301 51.2004C91.6709 51.481 90.7915 52.4632 91.1353 53.9364C91.4791 55.4097 92.0099 59.365 92.0099 59.365C92.0099 59.365 92.2749 55.8306 93.3091 56.8829C94.3432 57.9353 94.3245 59.198 93.731 60.2503C93.1375 61.3027 93.0032 63.4228 93.0032 63.4228C93.0032 63.4228 96.1169 59.7593 96.1716 57.6546C96.2264 55.55 98.0071 55.8306 95.9662 52.6737C95.9662 52.6737 97.2774 50.1481 95.1831 47.4121C95.1831 47.4121 94.6932 44.1148 93.415 42.2908C92.1367 40.4668 89.3665 38.5025 87.9569 38.6428C86.5473 38.7831 86.8015 38.0815 85.2446 38.0815C83.6877 38.0815 83.4307 38.7129 82.3099 38.9936C81.1892 39.2742 79.3708 38.0815 77.1699 39.6249C74.969 41.1683 75.0513 41.449 74.1719 42.4311C73.2924 43.4133 75.1021 44.3954 71.9638 45.5179C68.8256 46.6404 70.8378 52.5334 70.8378 52.5334C70.8378 52.5334 69.5848 54.4977 70.4837 55.8306C70.919 56.4761 70.4984 59.1047 71.0485 60.5009C71.6344 61.9877 72.5317 62.7896 72.5317 62.7896C72.5317 62.7896 72.8912 62.0693 72.8061 60.8553C72.6612 58.788 72.1801 55.8333 73.3494 56.5129C74.5045 57.1843 74.7754 60.0708 74.7754 60.0708C74.7754 60.0708 74.8371 55.1291 75.614 53.3752C75.614 53.3752 74.5393 51.3407 76.2304 49.4466C77.9215 47.5524 77.3682 46.1493 79.2429 46.9912C81.1176 47.833 82.6166 48.1212 83.4587 47.9733Z" fill="#3A556A"/>
</svg>
