<svg width="60" height="60" viewBox="0 0 60 60" fill="none" xmlns="http://www.w3.org/2000/svg">
<path d="M21.8277 21.9869C21.3642 22.5762 20.6834 22.9583 19.9366 23.0493C19.1889 23.1401 18.4366 22.9323 17.8431 22.4716C17.2506 22.0108 16.866 21.3348 16.775 20.5923C16.6831 19.8498 16.8921 19.1016 17.3555 18.5123C19.7369 15.4847 22.5809 13.8985 25.4815 13.4453C27.2054 13.1757 28.9673 13.2962 30.6372 13.7978C32.2766 14.2897 33.8091 15.0841 35.153 16.1393C38.3332 18.6494 40.449 22.255 41.0806 26.242C41.4985 28.8542 41.8162 31.1769 42.1069 33.317C42.4766 36.5395 43.0218 39.7398 43.7406 42.9035C43.9301 43.628 43.8215 44.3975 43.4397 45.0426C43.058 45.6876 42.4338 46.1556 41.7047 46.3435C40.9756 46.5312 40.202 46.4235 39.5527 46.044C38.9035 45.6646 38.4326 45.0443 38.2441 44.3197C37.4629 40.9376 36.875 37.5142 36.4831 34.066C36.1849 31.907 35.8496 29.5592 35.4763 27.1421C35.0759 24.5651 33.7208 22.2299 31.6756 20.5958C30.8927 19.981 30.001 19.5156 29.0472 19.2237C28.1843 18.9617 27.2732 18.8951 26.3815 19.0285C24.836 19.274 23.2524 20.1993 21.8397 21.9995L21.8277 21.9869Z" fill="#5BBE52"/>
<path d="M47.3704 15.3654C46.9366 14.7518 46.7667 13.9924 46.8967 13.254C47.0267 12.5157 47.4465 11.8589 48.0632 11.4282C48.6809 10.9975 49.4453 10.8281 50.1883 10.9574C50.9304 11.0866 51.5917 11.5039 52.0255 12.1174C52.8484 13.3356 53.5385 14.6376 54.0837 16.0011C54.7217 17.5429 55.2447 19.1291 55.6478 20.7472C55.7351 21.1071 55.7508 21.4808 55.6933 21.8468C55.6357 22.2127 55.5066 22.5638 55.3125 22.8801C54.9205 23.5186 54.2899 23.9764 53.558 24.1525C52.8261 24.3286 52.0543 24.2087 51.4115 23.8191C50.7697 23.4297 50.3091 22.8023 50.1317 22.0753C49.7982 20.7357 49.3635 19.4227 48.8332 18.1475C48.4459 17.1716 47.9555 16.2389 47.3704 15.3654Z" fill="#BADE9E"/>
<path d="M26.5329 11.1356C25.7843 11.2265 25.0292 11.018 24.4348 10.5559C23.8404 10.0937 23.4549 9.41583 23.363 8.67133C23.2719 7.92676 23.4818 7.17658 23.9462 6.58579C24.4116 5.99493 25.0933 5.6119 25.8428 5.52092C29.5794 5.05513 33.8295 6.15038 37.6171 8.46677C41.3165 10.7173 44.323 13.9358 46.306 17.77C48.732 22.5727 49.2577 26.8656 49.7639 31.0262C49.9478 32.5873 50.1382 34.1231 50.3973 35.5646C50.5246 36.2946 50.3574 37.0449 49.932 37.6538C49.5075 38.2626 48.8592 38.6815 48.1274 38.8201C47.3945 38.9587 46.6376 38.8061 46.0171 38.3949C45.3967 37.9839 44.9639 37.3472 44.8116 36.6221C44.4883 34.9288 44.2924 33.3237 44.0899 31.6935C43.6459 28.0049 43.1843 24.203 41.2143 20.313C39.7134 17.414 37.436 14.9831 34.6339 13.2883C31.9162 11.6329 28.984 10.8272 26.5078 11.1356H26.5329Z" fill="#9FD179"/>
<path d="M22.5178 48.3042C22.5308 47.5764 22.8262 46.8818 23.3426 46.3656C23.859 45.8493 24.5556 45.5515 25.2884 45.5345C26.0203 45.5175 26.7308 45.7824 27.2714 46.2739C27.811 46.7655 28.1389 47.4456 28.1863 48.172C28.2615 50.0428 28.0906 51.9154 27.6791 53.7426C27.3197 55.3205 26.625 56.8036 25.6404 58.0921C25.1686 58.6554 24.4952 59.0142 23.7624 59.0924C23.0296 59.1708 22.294 58.9626 21.7135 58.5117C21.1321 58.0609 20.7503 57.403 20.6482 56.6774C20.5469 55.9517 20.7336 55.2151 21.1683 54.6238C21.6494 53.9685 21.9856 53.22 22.1565 52.4271C22.4547 51.0781 22.5764 49.6965 22.5178 48.3167V48.3042Z" fill="#055782"/>
<path d="M33.6902 27.2995C33.7849 27.6577 33.8072 28.0311 33.7571 28.3983C33.7069 28.7654 33.5843 29.119 33.3967 29.4391C33.2082 29.7591 32.9592 30.0392 32.662 30.2634C32.3657 30.4876 32.0267 30.6514 31.6664 30.7457C31.306 30.8399 30.9298 30.8626 30.5611 30.8125C30.1914 30.7625 29.8357 30.6406 29.5134 30.4539C29.1911 30.2671 28.9097 30.0191 28.684 29.7241C28.4583 29.4292 28.2939 29.0929 28.1992 28.7346C28.123 28.4577 28.0469 28.2185 27.9707 27.9982C27.8862 27.7606 27.784 27.5291 27.667 27.3058C27.262 28.1741 27.0075 29.104 26.9128 30.0564C26.4698 32.9078 26.6221 36.8041 27.2295 41.1033C27.3335 41.8445 27.1357 42.5961 26.6815 43.1928C26.2274 43.7895 25.5531 44.1825 24.8072 44.2851C24.4376 44.336 24.0623 44.314 23.701 44.2205C23.3407 44.127 23.0017 43.9639 22.7045 43.7403C22.1045 43.2887 21.7088 42.6187 21.6057 41.8775C20.9156 37.0433 20.7568 32.5742 21.2825 29.1941C21.8778 25.3419 23.4233 22.5975 26.1215 21.6407C26.2738 21.5841 26.4252 21.54 26.5645 21.5023C27.3326 21.2902 28.1416 21.2749 28.9171 21.4575C29.6918 21.6403 30.4078 22.0151 30.9986 22.5471C32.062 23.5129 32.8561 24.7359 33.3038 26.0972C33.4431 26.4874 33.5695 26.8966 33.6837 27.3183L33.6902 27.2995Z" fill="#008BD2"/>
<path d="M35.7549 47.6116C35.7493 47.9835 35.6694 48.3507 35.5208 48.6921C35.3722 49.0336 35.1577 49.3426 34.8883 49.6014C34.3459 50.1244 33.6159 50.4116 32.8598 50.4C32.1047 50.3883 31.384 50.0787 30.8583 49.5391C30.3317 48.9997 30.0428 48.2746 30.0549 47.5233C29.9954 44.4004 29.7159 41.2853 29.218 38.2012L28.8131 35.1547C28.7221 34.4102 28.931 33.6599 29.3964 33.0691C29.8617 32.4784 30.5434 32.0953 31.293 32.0043C32.0416 31.9133 32.7967 32.1219 33.3911 32.5841C33.9855 33.0461 34.371 33.7241 34.4629 34.4686C34.7351 36.6654 34.7917 37.0619 34.8428 37.471C35.3843 40.8254 35.6787 44.2145 35.7233 47.6116H35.7549Z" fill="#009B3A"/>
<path d="M19.4333 30.4908C19.4184 30.8628 19.3302 31.2282 19.1742 31.5663C19.0172 31.9044 18.7952 32.2086 18.5203 32.4614C18.2454 32.7142 17.9231 32.9107 17.572 33.0396C17.22 33.1686 16.8466 33.2276 16.4723 33.2132C16.098 33.1987 15.7302 33.111 15.3903 32.9554C15.0503 32.7996 14.7438 32.5788 14.4893 32.3056C14.2348 32.0324 14.0379 31.712 13.9079 31.3628C13.7779 31.0136 13.7184 30.6424 13.7333 30.2705C13.7844 29.3598 13.92 28.4559 14.1382 27.5701C14.2274 27.1358 14.3221 26.7141 14.3602 26.412C14.4912 25.6965 14.8943 25.0586 15.4868 24.6312C16.0785 24.2037 16.8132 24.0194 17.5386 24.1167C18.2639 24.214 18.9234 24.5854 19.3794 25.1535C19.8364 25.7216 20.0556 26.4429 19.9906 27.1673C19.9088 27.759 19.8067 28.2436 19.6989 28.7409C19.5568 29.3157 19.4593 29.9008 19.4082 30.4908H19.4333Z" fill="#FCB92C"/>
<path d="M12.5556 24.9329C12.4636 25.2929 12.3011 25.6314 12.0773 25.929C11.8534 26.2266 11.5739 26.4776 11.2525 26.6675C10.9311 26.8575 10.5754 26.9827 10.2057 27.0361C9.83608 27.0895 9.45899 27.0699 9.09676 26.9786C8.73453 26.8873 8.39459 26.7259 8.09459 26.5038C7.79552 26.2816 7.54288 26.003 7.35155 25.6839C7.16022 25.3647 7.03484 25.0114 6.98097 24.6438C6.9271 24.2763 6.9466 23.9018 7.03855 23.5418C7.79645 20.3755 9.0531 17.3483 10.763 14.5722C12.5658 11.6827 15.081 9.29921 18.0717 7.64825C18.7311 7.3076 19.4983 7.23691 20.2088 7.45142C20.9203 7.66588 21.5184 8.14847 21.876 8.79586C22.2336 9.44321 22.3218 10.204 22.1221 10.9153C21.9225 11.6267 21.4506 12.2321 20.8079 12.602C18.6559 13.8079 16.8503 15.5415 15.5639 17.6376C14.1838 19.9118 13.1686 22.3859 12.5556 24.9707V24.9329Z" fill="#FECE4E"/>
<path d="M5.58221 20.6903C5.47911 21.0543 5.3045 21.3941 5.06766 21.6895C4.82989 21.9851 4.53547 22.2303 4.20203 22.4107C3.86766 22.5912 3.49985 22.7033 3.12183 22.7402C2.74289 22.7772 2.36116 22.7382 1.998 22.6258C1.63485 22.5134 1.29863 22.3297 1.00792 22.0856C0.717203 21.8417 0.47942 21.5421 0.307594 21.2049C0.135767 20.8678 0.0336093 20.4998 0.0066743 20.1227C-0.0193319 19.7456 0.0308197 19.3672 0.154349 19.0097C1.42772 14.9819 3.4367 11.222 6.08283 7.91878C8.56735 4.7169 11.7364 2.10276 15.3605 0.264671C16.0432 -0.0516809 16.8234 -0.0858373 17.5311 0.169729C18.2379 0.425296 18.8138 0.949643 19.1324 1.62742C19.4509 2.3052 19.4853 3.08089 19.228 3.78384C18.9708 4.4868 18.4432 5.05944 17.7615 5.3758C14.9444 6.84387 12.4878 8.91142 10.5661 11.4311C8.35281 14.186 6.67355 17.3257 5.6138 20.6903H5.58221Z" fill="#FFDA62"/>
</svg>
