<svg width="165" height="51" viewBox="0 0 165 51" fill="none" xmlns="http://www.w3.org/2000/svg">
<g clip-path="url(#clip0)">
<path d="M136.185 18.6889C135.791 19.1898 135.212 19.5146 134.578 19.5919C133.942 19.6691 133.303 19.4925 132.798 19.1009C132.294 18.7092 131.968 18.1347 131.89 17.5035C131.812 16.8724 131.99 16.2364 132.384 15.7355C134.408 13.1621 136.825 11.8138 139.291 11.4286C140.756 11.1994 142.254 11.3018 143.673 11.7282C145.067 12.1463 146.369 12.8216 147.512 13.7185C150.215 15.8521 152.013 18.9168 152.55 22.3058C152.905 24.5261 153.175 26.5004 153.422 28.3195C153.737 31.0586 154.2 33.7789 154.811 36.468C154.972 37.0838 154.88 37.7379 154.555 38.2863C154.231 38.8345 153.7 39.2323 153.08 39.392C152.461 39.5516 151.803 39.46 151.251 39.1375C150.699 38.8149 150.299 38.2877 150.139 37.6718C149.475 34.797 148.975 31.8871 148.642 28.9562C148.389 27.121 148.104 25.1253 147.786 23.0708C147.446 20.8803 146.294 18.8954 144.556 17.5065C143.89 16.9839 143.132 16.5883 142.322 16.3402C141.588 16.1175 140.814 16.0608 140.056 16.1743C138.742 16.3829 137.396 17.1694 136.195 18.6997L136.185 18.6889Z" fill="#5BBE52"/>
<path d="M157.896 13.0604C157.528 12.5389 157.383 11.8934 157.494 11.2657C157.604 10.6381 157.961 10.0799 158.485 9.71377C159.01 9.34767 159.66 9.2037 160.292 9.31362C160.922 9.42347 161.484 9.77811 161.853 10.2996C162.553 11.3351 163.139 12.4418 163.603 13.6008C164.145 14.9113 164.589 16.2596 164.932 17.6349C165.006 17.9409 165.02 18.2585 164.971 18.5696C164.922 18.8806 164.812 19.1791 164.647 19.4479C164.314 19.9907 163.778 20.3798 163.156 20.5295C162.534 20.6792 161.878 20.5772 161.331 20.2461C160.786 19.915 160.394 19.3818 160.243 18.7638C159.96 17.6251 159.591 16.5091 159.14 15.4252C158.811 14.5957 158.394 13.8029 157.896 13.0604Z" fill="#BADE9E"/>
<path d="M140.184 9.46497C139.548 9.54226 138.906 9.36501 138.401 8.97223C137.896 8.57938 137.568 8.00315 137.49 7.37033C137.413 6.73744 137.591 6.09979 137.986 5.59762C138.381 5.09539 138.961 4.76982 139.598 4.69249C142.774 4.29656 146.387 5.22752 149.606 7.19645C152.751 9.10938 155.306 11.8451 156.992 15.1042C159.054 19.1865 159.5 22.8354 159.931 26.3719C160.087 27.6989 160.249 29.0043 160.469 30.2296C160.577 30.8501 160.435 31.4879 160.074 32.0054C159.713 32.5229 159.162 32.879 158.54 32.9968C157.917 33.1146 157.273 32.9848 156.746 32.6354C156.219 32.286 155.851 31.7448 155.721 31.1284C155.447 29.6891 155.28 28.3249 155.108 26.9391C154.731 23.8038 154.338 20.5722 152.664 17.2658C151.388 14.8016 149.452 12.7353 147.07 11.2948C144.76 9.88764 142.268 9.20283 140.163 9.46497H140.184Z" fill="#9FD179"/>
<path d="M136.772 41.0586C136.783 40.44 137.034 39.8496 137.473 39.4108C137.912 38.972 138.504 38.7189 139.127 38.7044C139.749 38.6899 140.353 38.9151 140.812 39.3329C141.271 39.7507 141.549 40.3288 141.59 40.9463C141.654 42.5364 141.508 44.1282 141.159 45.6813C140.853 47.0225 140.263 48.2831 139.426 49.3784C139.025 49.8571 138.452 50.1621 137.829 50.2286C137.207 50.2953 136.581 50.1183 136.088 49.735C135.594 49.3518 135.269 48.7926 135.182 48.1759C135.096 47.559 135.255 46.9329 135.624 46.4303C136.033 45.8733 136.319 45.2371 136.464 44.5631C136.718 43.4165 136.821 42.2421 136.772 41.0693V41.0586Z" fill="#055782"/>
<path d="M146.268 23.2046C146.349 23.5091 146.368 23.8265 146.325 24.1386C146.282 24.4507 146.178 24.7512 146.019 25.0233C145.858 25.2953 145.647 25.5333 145.394 25.7239C145.142 25.9145 144.854 26.0538 144.548 26.1339C144.242 26.214 143.922 26.2333 143.608 26.1907C143.294 26.1482 142.992 26.0446 142.718 25.8859C142.444 25.7271 142.205 25.5163 142.013 25.2656C141.821 25.0149 141.681 24.729 141.601 24.4244C141.536 24.1891 141.471 23.9858 141.407 23.7985C141.335 23.5965 141.248 23.3998 141.148 23.2099C140.804 23.948 140.588 24.7384 140.507 25.548C140.131 27.9717 140.26 31.2836 140.777 34.9378C140.865 35.5679 140.697 36.2067 140.311 36.714C139.925 37.2211 139.352 37.5551 138.718 37.6424C138.403 37.6856 138.084 37.6669 137.777 37.5875C137.471 37.508 137.183 37.3693 136.93 37.1793C136.42 36.7955 136.084 36.2259 135.996 35.596C135.41 31.4868 135.275 27.6881 135.722 24.815C136.228 21.5407 137.541 19.2079 139.835 18.3947C139.964 18.3465 140.093 18.3091 140.211 18.277C140.864 18.0968 141.552 18.0837 142.211 18.2389C142.869 18.3943 143.478 18.7129 143.98 19.1651C144.884 19.986 145.559 21.0256 145.94 22.1826C146.058 22.5144 146.166 22.8622 146.263 23.2206L146.268 23.2046Z" fill="#008BD2"/>
<path d="M148.023 40.4701C148.018 40.7862 147.951 41.0983 147.824 41.3885C147.698 41.6788 147.516 41.9415 147.287 42.1615C146.826 42.606 146.205 42.8501 145.562 42.8402C144.921 42.8303 144.308 42.5671 143.861 42.1085C143.413 41.65 143.168 41.0337 143.178 40.3951C143.128 37.7405 142.89 35.0928 142.467 32.4713L142.123 29.8818C142.045 29.2489 142.223 28.6112 142.618 28.109C143.014 27.6069 143.593 27.2812 144.231 27.2039C144.867 27.1266 145.509 27.3038 146.014 27.6967C146.519 28.0895 146.847 28.6657 146.925 29.2986C147.156 31.1659 147.204 31.5029 147.248 31.8506C147.708 34.7018 147.958 37.5826 147.996 40.4701H148.023Z" fill="#009B3A"/>
<path d="M134.15 25.9172C134.137 26.2334 134.062 26.544 133.93 26.8314C133.796 27.1188 133.607 27.3773 133.374 27.5923C133.14 27.8071 132.866 27.9741 132.568 28.0837C132.268 28.1933 131.951 28.2435 131.633 28.2312C131.315 28.2189 131.002 28.1444 130.713 28.0121C130.424 27.8797 130.164 27.6921 129.947 27.4598C129.731 27.2276 129.564 26.9552 129.453 26.6584C129.343 26.3616 129.292 26.0461 129.305 25.73C129.348 24.9559 129.463 24.1876 129.649 23.4347C129.725 23.0655 129.805 22.707 129.838 22.4502C129.949 21.842 130.292 21.2999 130.795 20.9365C131.298 20.5732 131.923 20.4166 132.539 20.4993C133.156 20.582 133.716 20.8976 134.104 21.3805C134.492 21.8634 134.679 22.4765 134.623 23.0923C134.554 23.5952 134.467 24.0071 134.376 24.4298C134.255 24.9184 134.172 25.4157 134.128 25.9172H134.15Z" fill="#FCB92C"/>
<path d="M128.304 21.1929C128.226 21.4989 128.087 21.7866 127.897 22.0395C127.707 22.2925 127.469 22.5058 127.196 22.6673C126.923 22.8288 126.621 22.9352 126.306 22.9806C125.992 23.0259 125.672 23.0093 125.364 22.9317C125.056 22.8541 124.767 22.7169 124.512 22.5281C124.258 22.3393 124.043 22.1025 123.88 21.8312C123.718 21.5599 123.611 21.2595 123.565 20.9471C123.52 20.6348 123.536 20.3164 123.614 20.0104C124.258 17.319 125.327 14.7459 126.78 12.3863C128.312 9.93017 130.45 7.90421 132.992 6.5009C133.553 6.21134 134.205 6.15126 134.809 6.33359C135.414 6.51588 135.922 6.92609 136.226 7.47637C136.53 8.02661 136.605 8.67329 136.435 9.27792C136.266 9.88254 135.865 10.3972 135.318 10.7116C133.489 11.7366 131.954 13.2102 130.861 14.9919C129.688 16.9249 128.825 19.0279 128.304 21.2249V21.1929Z" fill="#FECE4E"/>
<path d="M122.376 17.5868C122.289 17.8961 122.14 18.185 121.939 18.4361C121.737 18.6873 121.487 18.8957 121.203 19.0491C120.919 19.2025 120.606 19.2978 120.285 19.3292C119.963 19.3606 119.638 19.3275 119.33 19.2319C119.021 19.1364 118.735 18.9802 118.488 18.7728C118.241 18.5654 118.039 18.3108 117.893 18.0242C117.747 17.7376 117.66 17.4248 117.637 17.1043C117.615 16.7838 117.658 16.4621 117.763 16.1582C118.845 12.7346 120.553 9.53873 122.802 6.73096C124.914 4.00936 127.607 1.78735 130.688 0.22497C131.268 -0.0439288 131.931 -0.0729617 132.533 0.14427C133.134 0.361501 133.623 0.807197 133.894 1.38331C134.165 1.95942 134.194 2.61876 133.975 3.21626C133.757 3.81378 133.308 4.30052 132.729 4.56943C130.334 5.81729 128.246 7.57471 126.613 9.71644C124.731 12.0581 123.304 14.7268 122.403 17.5868H122.376Z" fill="#FFDA62"/>
<path d="M21.9046 8.91794H20.78V2.38052H21.9046V8.91794ZM20.6887 0.646521C20.6887 0.465275 20.7435 0.312275 20.8529 0.187521C20.9664 0.062768 21.1326 0 21.3514 0C21.5702 0 21.7364 0.062768 21.8499 0.187521C21.9633 0.312275 22.0201 0.465275 22.0201 0.646521C22.0201 0.827769 21.9633 0.978415 21.8499 1.09925C21.7364 1.22008 21.5702 1.28049 21.3514 1.28049C21.1326 1.28049 20.9664 1.22008 20.8529 1.09925C20.7435 0.978415 20.6887 0.827769 20.6887 0.646521Z" fill="black"/>
<path d="M28.0109 2.38054L28.0474 3.20203C28.5499 2.57355 29.2065 2.2597 30.017 2.2597C31.4071 2.2597 32.1082 3.03883 32.1204 4.59786V8.91794H30.9958V4.59158C30.9917 4.1208 30.8822 3.77244 30.6675 3.54647C30.4567 3.32129 30.1264 3.2083 29.6765 3.2083C29.3118 3.2083 28.9917 3.30481 28.7161 3.49783C28.4405 3.69163 28.2257 3.94506 28.0717 4.25969V8.91794H26.947V2.38054H28.0109Z" fill="black"/>
<path d="M40.8833 7.18395C40.8833 6.88187 40.7678 6.64806 40.5368 6.4825C40.3098 6.31381 39.9106 6.16866 39.3391 6.04783C38.7718 5.927 38.3199 5.78184 37.9835 5.61237C37.6512 5.44367 37.404 5.24203 37.2419 5.00821C37.0839 4.77518 37.0048 4.49743 37.0048 4.17495C37.0048 3.63906 37.2317 3.18634 37.6857 2.81521C38.1436 2.44487 38.7272 2.2597 39.4364 2.2597C40.1821 2.2597 40.786 2.45115 41.248 2.83326C41.7141 3.21615 41.9471 3.70575 41.9471 4.30206H40.8164C40.8164 3.99527 40.6847 3.73164 40.4213 3.51038C40.1619 3.28834 39.8336 3.1777 39.4364 3.1777C39.0271 3.1777 38.7069 3.26637 38.4759 3.44369C38.2449 3.62101 38.1294 3.85247 38.1294 4.13886C38.1294 4.40877 38.2368 4.61198 38.4516 4.7485C38.6664 4.88581 39.0534 5.01684 39.6127 5.1416C40.1761 5.26635 40.632 5.41543 40.9805 5.58883C41.3291 5.76144 41.5864 5.97094 41.7526 6.2173C41.9228 6.45897 42.0079 6.75477 42.0079 7.1047C42.0079 7.68924 41.7729 8.15844 41.3027 8.51308C40.8326 8.86302 40.2226 9.03877 39.4729 9.03877C38.9461 9.03877 38.48 8.9454 38.0747 8.76024C37.6695 8.57507 37.3513 8.31771 37.1203 7.98739C36.8934 7.65315 36.7799 7.29223 36.7799 6.90541H37.9045C37.9248 7.28046 38.0747 7.57861 38.3544 7.79987C38.6381 8.01721 39.0109 8.12627 39.4729 8.12627C39.8985 8.12627 40.2389 8.04153 40.4942 7.87205C40.7536 7.69944 40.8833 7.46955 40.8833 7.18395Z" fill="black"/>
<path d="M48.2359 0.797161V2.38052H49.4639V3.24438H48.2359V7.29848C48.2359 7.56055 48.2906 7.75748 48.4 7.89009C48.5094 8.01955 48.6959 8.08389 48.9593 8.08389C49.089 8.08389 49.2673 8.05957 49.4943 8.01092V8.91794C49.1984 8.99797 48.9106 9.03877 48.631 9.03877C48.1285 9.03877 47.7496 8.88734 47.4942 8.58526C47.2389 8.28319 47.1113 7.854 47.1113 7.29848V3.24438H45.9136V2.38052H47.1113V0.797161H48.2359Z" fill="black"/>
<path d="M55.2419 8.91794H54.1172V2.38052H55.2419V8.91794ZM54.0261 0.646521C54.0261 0.465275 54.0808 0.312275 54.1902 0.187521C54.3036 0.062768 54.4698 0 54.6887 0C54.9075 0 55.0737 0.062768 55.1871 0.187521C55.3007 0.312275 55.3574 0.465275 55.3574 0.646521C55.3574 0.827769 55.3007 0.978415 55.1871 1.09925C55.0737 1.22008 54.9075 1.28049 54.6887 1.28049C54.4698 1.28049 54.3036 1.22008 54.1902 1.09925C54.0808 0.978415 54.0261 0.827769 54.0261 0.646521Z" fill="black"/>
<path d="M61.8103 0.797161V2.38052H63.0382V3.24438H61.8103V7.29848C61.8103 7.56055 61.865 7.75748 61.9744 7.89009C62.0838 8.01955 62.2702 8.08389 62.5337 8.08389C62.6633 8.08389 62.8416 8.05957 63.0686 8.01092V8.91794C62.7728 8.99797 62.485 9.03877 62.2054 9.03877C61.7028 9.03877 61.3239 8.88734 61.0686 8.58526C60.8132 8.28319 60.6856 7.854 60.6856 7.29848V3.24438H59.488V2.38052H60.6856V0.797161H61.8103Z" fill="black"/>
<path d="M71.6553 8.27141C71.2176 8.78298 70.5752 9.03877 69.7282 9.03877C69.027 9.03877 68.4921 8.83712 68.1233 8.43383C67.7585 8.0274 67.5742 7.42716 67.5701 6.63391V2.38052H68.6948V6.60331C68.6948 7.59428 69.1 8.09017 69.9105 8.09017C70.7697 8.09017 71.3411 7.7716 71.6249 7.13528V2.38052H72.7495V8.91794H71.6796L71.6553 8.27141Z" fill="black"/>
<path d="M79.2269 0.797161V2.38052H80.4545V3.24438H79.2269V7.29848C79.2269 7.56055 79.2814 7.75748 79.3911 7.89009C79.5 8.01955 79.6864 8.08389 79.95 8.08389C80.0795 8.08389 80.2579 8.05957 80.4853 8.01092V8.91794C80.1893 8.99797 79.9011 9.03877 79.6216 9.03877C79.1195 9.03877 78.7403 8.88734 78.485 8.58526C78.2297 8.28319 78.102 7.854 78.102 7.29848V3.24438H76.9044V2.38052H78.102V0.797161H79.2269Z" fill="black"/>
<path d="M84.5913 5.58883C84.5913 4.9478 84.7168 4.37189 84.9679 3.86032C85.2237 3.34875 85.5758 2.95409 86.0258 2.67634C86.4797 2.39858 86.9968 2.2597 87.5763 2.2597C88.4716 2.2597 89.1955 2.56806 89.7466 3.18398C90.3016 3.7999 90.5795 4.61983 90.5795 5.64297V5.72143C90.5795 6.35775 90.4555 6.92974 90.2084 7.43738C89.9653 7.9411 89.6147 8.3334 89.1568 8.61508C88.7029 8.89754 88.1803 9.03877 87.5881 9.03877C86.6968 9.03877 85.9729 8.73042 85.4179 8.11371C84.8668 7.4978 84.5913 6.6818 84.5913 5.66729V5.58883ZM85.7218 5.72143C85.7218 6.44641 85.89 7.0286 86.2263 7.4672C86.5674 7.90657 87.0205 8.12627 87.5881 8.12627C88.1597 8.12627 88.6137 7.90422 88.95 7.4617C89.2863 7.01447 89.4545 6.38992 89.4545 5.58883C89.4545 4.87169 89.2824 4.29186 88.9381 3.84855C88.5971 3.40132 88.1432 3.1777 87.5763 3.1777C87.0205 3.1777 86.5729 3.3974 86.2326 3.83678C85.8924 4.27538 85.7218 4.90386 85.7218 5.72143Z" fill="black"/>
<path d="M3.50528 29.7408C3.52114 29.9715 3.48912 30.203 3.41119 30.4211C3.33327 30.6392 3.21112 30.8385 3.05232 31.008C2.89351 31.1767 2.70146 31.3116 2.48807 31.4034C2.27468 31.4952 2.04451 31.5431 1.81187 31.5431C1.57922 31.5431 1.34906 31.4952 1.13567 31.4034C0.922276 31.3116 0.730221 31.1767 0.571419 31.008C0.412617 30.8385 0.290461 30.6392 0.212538 30.4211C0.134616 30.203 0.102592 29.9715 0.11845 29.7408V16.0885C0.118447 15.8681 0.162407 15.6492 0.247804 15.4444C0.333202 15.2404 0.45835 15.0552 0.616069 14.8991C0.773789 14.7429 0.960968 14.619 1.16686 14.5358C1.37274 14.4518 1.59328 14.4087 1.81581 14.4095H1.87898C3.80388 14.2376 5.74421 14.4055 7.61056 14.9038C8.69117 15.1941 9.63538 15.8516 10.2787 16.7617C10.9221 17.6719 11.2239 18.7774 11.1316 19.8861C11.1771 20.6166 11.0646 21.3486 10.8018 22.032C10.5389 22.7154 10.1318 23.3345 9.60791 23.8484C8.61767 24.7028 7.37824 25.2199 6.07107 25.3235C5.63937 25.3556 5.21172 25.2222 4.87636 24.95C4.541 24.6777 4.32353 24.2886 4.26884 23.8617C4.21414 23.4349 4.32639 23.0034 4.58243 22.6566C4.83845 22.3098 5.21873 22.0736 5.64477 21.9967C6.2393 21.97 6.81169 21.7644 7.28686 21.4082C7.46354 21.2003 7.59646 20.9594 7.67782 20.6989C7.75917 20.4392 7.7873 20.1654 7.76055 19.8939C7.79386 19.4961 7.6868 19.0999 7.45775 18.7719C7.2287 18.444 6.89194 18.2054 6.50529 18.0972C5.52974 17.8257 4.51797 17.7041 3.50528 17.7362V29.7487V29.7408ZM68.2421 16.7005C68.4764 17.0262 68.5871 17.4232 68.5543 17.8218C68.5214 18.2196 68.3472 18.5938 68.0628 18.8763C67.7783 19.1595 67.402 19.3321 67.0012 19.3651C66.6003 19.3973 66.2007 19.2874 65.8737 19.0544L65.3763 18.5679L64.8553 19.0858C64.7118 19.2851 64.5265 19.4506 64.3122 19.5714C64.0979 19.6915 63.8598 19.7645 63.6143 19.7849C63.3689 19.8045 63.122 19.7715 62.8908 19.6868C62.6596 19.6028 62.4496 19.4694 62.2754 19.296C62.1014 19.1234 61.9672 18.9147 61.8823 18.6848C61.7974 18.4549 61.7639 18.2094 61.784 17.9653C61.8041 17.7213 61.8774 17.4852 61.9988 17.2717C62.1202 17.0591 62.2867 16.8747 62.4869 16.7319L64.0658 15.2019C64.1144 15.1313 64.1699 15.0662 64.2316 15.0058C64.5504 14.7029 64.9747 14.5342 65.4158 14.5342C65.857 14.5342 66.2812 14.7029 66.6 15.0058L68.2974 16.7005H68.2421ZM97.0974 16.1827C97.4321 16.1819 97.7598 16.2792 98.0392 16.4628C98.3179 16.6464 98.5358 16.9085 98.6645 17.216C98.7932 17.5228 98.8279 17.861 98.7624 18.1882C98.6977 18.5146 98.5366 18.8143 98.2998 19.0497C98.0629 19.2851 97.7613 19.4451 97.4329 19.5095C97.1045 19.5738 96.7642 19.5401 96.4548 19.4122C96.1461 19.2835 95.8824 19.0677 95.6969 18.79C95.5121 18.513 95.4142 18.1874 95.4158 17.8539C95.4158 17.4114 95.5927 16.9861 95.9084 16.6723C96.2234 16.3592 96.6513 16.1827 97.0974 16.1827ZM44.3526 16.1827C44.6875 16.1819 45.0152 16.2792 45.2943 16.4628C45.5733 16.6464 45.7911 16.9085 45.9199 17.216C46.0488 17.5228 46.0829 17.861 46.018 18.1882C45.953 18.5146 45.7919 18.8143 45.5552 19.0497C45.3184 19.2851 45.0167 19.4451 44.6882 19.5095C44.3598 19.5738 44.0194 19.5401 43.7103 19.4122C43.4013 19.2835 43.1376 19.0677 42.9525 18.79C42.7675 18.513 42.6695 18.1874 42.6711 17.8539C42.6711 17.4114 42.8482 16.9861 43.1636 16.6723C43.4789 16.3592 43.9067 16.1827 44.3526 16.1827ZM105.782 28.2265C106.232 28.2265 106.663 28.4046 106.982 28.7208C107.3 29.037 107.479 29.4662 107.479 29.9135C107.479 30.3615 107.3 30.7907 106.982 31.1069C106.663 31.4231 106.232 31.6004 105.782 31.6004C104.921 31.602 104.072 31.4121 103.295 31.0441C102.518 30.6761 101.833 30.1402 101.293 29.4756C100.751 28.8111 100.367 28.0343 100.167 27.2026C99.9671 26.3709 99.9577 25.5047 100.138 24.6691C100.319 23.8327 100.686 23.0473 101.212 22.371C101.739 21.6946 102.411 21.143 103.179 20.7586C103.947 20.3733 104.792 20.1646 105.653 20.1466C106.513 20.1285 107.366 20.3027 108.15 20.655C108.448 20.4118 108.822 20.2784 109.208 20.2784C109.658 20.2784 110.09 20.4565 110.408 20.7727C110.726 21.0889 110.905 21.5181 110.905 21.9653V29.7408C110.905 30.1889 110.726 30.618 110.408 30.9342C110.09 31.2504 109.658 31.4278 109.208 31.4278C108.758 31.4278 108.326 31.2504 108.008 30.9342C107.69 30.618 107.511 30.1889 107.511 29.7408V24.2485C107.289 24.0226 107.024 23.8421 106.731 23.7197C106.438 23.5965 106.123 23.5338 105.805 23.5345C105.177 23.5345 104.575 23.7833 104.131 24.2242C103.686 24.666 103.437 25.2646 103.437 25.8884C103.437 26.5129 103.686 27.1116 104.131 27.5533C104.575 27.9943 105.177 28.2422 105.805 28.2422L105.782 28.2265ZM98.8974 29.7408C98.8974 30.1889 98.719 30.618 98.4 30.9342C98.0819 31.2504 97.65 31.4278 97.2 31.4278C96.75 31.4278 96.3182 31.2504 96 30.9342C95.6819 30.618 95.5027 30.1889 95.5027 29.7408V21.9653C95.5027 21.5181 95.6819 21.0889 96 20.7727C96.3182 20.4565 96.75 20.2784 97.2 20.2784C97.65 20.2784 98.0819 20.4565 98.4 20.7727C98.719 21.0889 98.8974 21.5181 98.8974 21.9653V29.7408ZM82.3974 29.7408C82.3974 30.1865 82.2198 30.6133 81.9024 30.9288C81.5858 31.2434 81.1563 31.4199 80.7079 31.4199C80.2595 31.4199 79.83 31.2434 79.5134 30.9288C79.1961 30.6133 79.0184 30.1865 79.0184 29.7408C79.0184 29.2308 79.0184 28.7208 79.0658 28.1716C79.1448 26.4298 79.2395 24.2485 78.7263 23.6208C78.5132 23.3698 77.6842 23.715 75.6553 25.3313V29.7408C75.6553 30.1889 75.4765 30.618 75.1582 30.9342C74.8398 31.2504 74.4081 31.4278 73.9579 31.4278C73.5078 31.4278 73.076 31.2504 72.7577 30.9342C72.4394 30.618 72.2605 30.1889 72.2605 29.7408V21.9653C72.2622 21.5738 72.4012 21.194 72.6538 20.8927C72.9063 20.5914 73.2566 20.3874 73.6443 20.3145C74.0321 20.2423 74.4332 20.3066 74.7786 20.4957C75.124 20.6856 75.3921 20.9892 75.5369 21.3533C78.3869 19.7056 80.179 20.0901 81.3316 21.4867C82.6737 23.1187 82.5474 26.0061 82.4448 28.3207C82.4448 28.8699 82.3974 29.3799 82.3974 29.7408ZM89.3448 28.2265C89.7948 28.2265 90.2266 28.4046 90.5448 28.7208C90.8637 29.037 91.0421 29.4662 91.0421 29.9135C91.0421 30.3615 90.8637 30.7907 90.5448 31.1069C90.2266 31.4231 89.7948 31.6004 89.3448 31.6004C88.3595 31.609 87.3877 31.365 86.524 30.8927C85.6611 30.4211 84.9332 29.7361 84.4121 28.9044C83.8919 28.0728 83.5942 27.1226 83.5484 26.1442C83.5034 25.165 83.7119 24.1913 84.154 23.3164C84.5961 22.4408 85.2569 21.6923 86.0732 21.1438C86.8895 20.5946 87.8337 20.2635 88.8166 20.1811C89.7987 20.0995 90.7855 20.2698 91.6824 20.6754C92.5792 21.081 93.3569 21.7095 93.9395 22.4988C94.2048 22.859 94.3145 23.3094 94.2458 23.7495C94.1771 24.1905 93.9348 24.5859 93.5724 24.8488C93.21 25.1124 92.7577 25.2215 92.314 25.1532C91.8711 25.0849 91.4732 24.8441 91.2079 24.4839C90.9884 24.1873 90.7019 23.9449 90.3711 23.7778C90.0395 23.6091 89.6708 23.5228 89.2974 23.5267C88.6698 23.5275 88.0674 23.7762 87.6237 24.2172C87.1824 24.6589 86.9353 25.2552 86.9353 25.8766C86.9353 26.4988 87.1824 27.0951 87.6237 27.5361C88.0674 27.9778 88.6698 28.2265 89.2974 28.2265H89.3448ZM65.4079 28.2265C65.8581 28.2265 66.2898 28.4046 66.6082 28.7208C66.9265 29.037 67.1053 29.4662 67.1053 29.9135C67.1053 30.3615 66.9265 30.7907 66.6082 31.1069C66.2898 31.4231 65.8581 31.6004 65.4079 31.6004C64.2674 31.602 63.1521 31.2677 62.2031 30.6384C61.2542 30.01 60.5143 29.1155 60.0771 28.0688C59.6399 27.0214 59.5251 25.8696 59.7472 24.7578C59.9694 23.646 60.5184 22.6244 61.3248 21.8233C62.1314 21.0214 63.1589 20.4761 64.2776 20.2548C65.3963 20.0344 66.5557 20.1481 67.6091 20.5828C68.6625 21.0175 69.5625 21.7527 70.1952 22.6958C70.8279 23.6389 71.1648 24.7476 71.1632 25.8805C71.1632 26.3262 70.9852 26.753 70.6683 27.0684C70.3515 27.3831 69.9218 27.5596 69.4737 27.5596H65.4079C65.1758 27.5761 64.9429 27.5439 64.7237 27.4662C64.5045 27.3894 64.3037 27.2677 64.1336 27.11C63.9636 26.9523 63.8281 26.7609 63.7354 26.549C63.6427 26.3372 63.5949 26.1081 63.5949 25.8766C63.5949 25.6459 63.6427 25.4168 63.7354 25.205C63.8281 24.9931 63.9636 24.8017 64.1336 24.644C64.3037 24.4863 64.5045 24.3647 64.7237 24.2878C64.9429 24.2101 65.1758 24.1779 65.4079 24.1936H67.0579C66.7804 23.9229 66.4401 23.7244 66.0669 23.6154C65.6937 23.5055 65.2991 23.4898 64.9182 23.5683C64.5373 23.6467 64.1816 23.817 63.8827 24.0642C63.5837 24.3113 63.3506 24.6283 63.2041 24.9869C63.0576 25.3446 63.0021 25.733 63.0425 26.1175C63.0829 26.502 63.218 26.8707 63.4359 27.1908C63.6537 27.5118 63.9476 27.7738 64.2915 27.9543C64.6355 28.1347 65.0189 28.2289 65.4079 28.2265ZM53.1079 28.2265C53.5581 28.2265 53.9898 28.4046 54.3081 28.7208C54.6265 29.037 54.8053 29.4662 54.8053 29.9135C54.8053 30.3615 54.6265 30.7907 54.3081 31.1069C53.9898 31.4231 53.5581 31.6004 53.1079 31.6004C51.6174 31.5462 50.2063 30.9186 49.1713 29.8515C48.1364 28.7844 47.5581 27.3595 47.5581 25.8766C47.5581 24.3945 48.1364 22.9696 49.1713 21.9025C50.2063 20.8355 51.6174 20.2078 53.1079 20.1528C53.7565 20.1544 54.4 20.2658 55.0105 20.4824V16.1748C54.9947 15.9442 55.0267 15.7127 55.1047 15.4954C55.1826 15.2772 55.3047 15.078 55.4635 14.9085C55.6223 14.7398 55.8144 14.6048 56.0278 14.513C56.2412 14.4212 56.4713 14.3734 56.704 14.3734C56.9366 14.3734 57.1668 14.4212 57.3802 14.513C57.5935 14.6048 57.7856 14.7398 57.9444 14.9085C58.1032 15.078 58.2254 15.2772 58.3033 15.4954C58.3812 15.7127 58.4133 15.9442 58.3974 16.1748V23.9112C58.4053 23.9794 58.4053 24.0477 58.3974 24.1152V29.7408C58.4133 29.9715 58.3812 30.203 58.3033 30.4211C58.2254 30.6392 58.1032 30.8385 57.9444 31.008C57.7856 31.1767 57.5935 31.3116 57.3802 31.4034C57.1668 31.4952 56.9366 31.5431 56.704 31.5431C56.4713 31.5431 56.2412 31.4952 56.0278 31.4034C55.8144 31.3116 55.6223 31.1767 55.4635 31.008C55.3047 30.8385 55.1826 30.6392 55.1047 30.4211C55.0267 30.203 54.9947 29.9715 55.0105 29.7408V24.4604C54.7685 24.1403 54.4481 23.886 54.0796 23.7228C53.7112 23.5596 53.3069 23.493 52.9051 23.5283C52.5033 23.5644 52.1174 23.7017 51.7838 23.9268C51.4503 24.152 51.1802 24.4588 50.9992 24.8166C50.8182 25.1752 50.7323 25.5738 50.7496 25.9739C50.7669 26.3748 50.8868 26.764 51.098 27.1053C51.3093 27.4474 51.6047 27.7291 51.9565 27.9252C52.3082 28.1222 52.7046 28.2258 53.1079 28.2265ZM46.1053 29.7408C46.1212 29.9715 46.0891 30.203 46.0112 30.4211C45.9333 30.6392 45.8111 30.8385 45.6524 31.008C45.4935 31.1767 45.3014 31.3116 45.088 31.4034C44.8746 31.4952 44.6445 31.5431 44.4119 31.5431C44.1792 31.5431 43.9491 31.4952 43.7357 31.4034C43.5223 31.3116 43.3302 31.1767 43.1714 31.008C43.0126 30.8385 42.8905 30.6392 42.8125 30.4211C42.7346 30.203 42.7026 29.9715 42.7184 29.7408V21.9653C42.7026 21.7346 42.7346 21.5032 42.8125 21.2858C42.8905 21.0677 43.0126 20.8684 43.1714 20.6989C43.3302 20.5302 43.5223 20.3953 43.7357 20.3035C43.9491 20.2117 44.1792 20.1638 44.4119 20.1638C44.6445 20.1638 44.8746 20.2117 45.088 20.3035C45.3014 20.3953 45.4935 20.5302 45.6524 20.6989C45.8111 20.8684 45.9333 21.0677 46.0112 21.2858C46.0891 21.5032 46.1212 21.7346 46.1053 21.9653V29.7408ZM31.8474 22.7264C31.6673 22.3192 31.6577 21.857 31.8205 21.442C31.9834 21.0269 32.3054 20.6934 32.7158 20.5138C33.1262 20.3349 33.5913 20.3255 34.0088 20.4871C34.4264 20.6495 34.762 20.9696 34.9421 21.3768L36.75 25.4568L38.5263 21.3847C38.6054 21.1705 38.7279 20.9736 38.8862 20.808C39.0445 20.6417 39.2351 20.5098 39.4466 20.4196C39.6581 20.3294 39.886 20.2831 40.1161 20.2831C40.3462 20.2839 40.5738 20.331 40.785 20.422C40.9961 20.513 41.1864 20.6456 41.344 20.8127C41.5015 20.979 41.6233 21.176 41.7015 21.391C41.7798 21.606 41.8131 21.8351 41.7993 22.0634C41.7854 22.2917 41.7248 22.5145 41.6211 22.7185L38.3448 30.243C38.2288 30.5616 38.0189 30.8385 37.7425 31.037C37.4662 31.2348 37.1361 31.3462 36.7954 31.3556C36.4547 31.365 36.119 31.2716 35.832 31.0888C35.5451 30.906 35.3204 30.6416 35.1869 30.3293L31.8316 22.7264H31.8474ZM25.7842 28.2187C26.2344 28.2187 26.6661 28.3968 26.9845 28.713C27.3028 29.0292 27.4816 29.4584 27.4816 29.9056C27.4816 30.3536 27.3028 30.7828 26.9845 31.099C26.6661 31.4152 26.2344 31.5925 25.7842 31.5925C24.6463 31.591 23.5344 31.2544 22.5889 30.6251C21.6435 29.9958 20.9071 29.1022 20.4727 28.0563C20.0383 27.0112 19.9255 25.8617 20.1484 24.7523C20.3714 23.6436 20.9201 22.6252 21.7253 21.8256C22.5306 21.0269 23.556 20.4824 24.6723 20.2627C25.7884 20.0422 26.9452 20.156 27.9964 20.5891C29.0476 21.0222 29.9459 21.7558 30.578 22.6958C31.21 23.6365 31.5474 24.7421 31.5474 25.8727C31.5453 26.3191 31.3656 26.746 31.0475 27.0606C30.7294 27.3752 30.2988 27.5518 29.85 27.5518H25.7842C25.5521 27.5682 25.3192 27.5361 25.1001 27.4584C24.8808 27.3815 24.68 27.2599 24.5099 27.1022C24.34 26.9445 24.2044 26.753 24.1117 26.5412C24.019 26.3293 23.9712 26.1002 23.9712 25.8688C23.9712 25.6381 24.019 25.409 24.1117 25.1971C24.2044 24.9853 24.34 24.7938 24.5099 24.6361C24.68 24.4784 24.8808 24.3568 25.1001 24.2799C25.3192 24.2022 25.5521 24.1701 25.7842 24.1858H27.4342C26.9912 23.7527 26.3943 23.5094 25.7724 23.5094C25.1505 23.5094 24.5536 23.7527 24.1105 24.1858C23.6695 24.6275 23.4218 25.2238 23.4218 25.8452C23.4218 26.4674 23.6695 27.0637 24.1105 27.5047C24.5543 27.9464 25.1563 28.1952 25.7842 28.1952V28.2187ZM14.9921 21.0238C16.0165 20.5232 17.1518 20.2886 18.2921 20.3412C18.7402 20.3412 19.1699 20.5185 19.4868 20.8331C19.8036 21.1485 19.9816 21.5754 19.9816 22.0202C19.9816 22.4659 19.8036 22.8927 19.4868 23.2081C19.1699 23.5228 18.7402 23.6993 18.2921 23.6993C15.7026 23.6993 15.3632 26.4376 15.3158 28.6424V29.7408C15.3317 29.9715 15.2996 30.203 15.2217 30.4211C15.1438 30.6392 15.0216 30.8385 14.8629 31.008C14.704 31.1767 14.512 31.3116 14.2986 31.4034C14.0852 31.4952 13.855 31.5431 13.6224 31.5431C13.3897 31.5431 13.1596 31.4952 12.9462 31.4034C12.7328 31.3116 12.5407 31.1767 12.382 31.008C12.2231 30.8385 12.101 30.6392 12.0231 30.4211C11.9451 30.203 11.9131 29.9715 11.929 29.7408V21.9653C11.93 21.6052 12.0472 21.2544 12.2635 20.9649C12.4797 20.6754 12.7836 20.462 13.1306 20.3568C13.4777 20.2517 13.8495 20.2596 14.1916 20.3796C14.5338 20.4996 14.8281 20.7256 15.0316 21.0238H14.9921Z" fill="#052848"/>
<path d="M87.529 48.6587C87.529 49.1059 87.3497 49.5351 87.0316 49.8513C86.7134 50.1675 86.2816 50.3456 85.8316 50.3456C85.3816 50.3456 84.9497 50.1675 84.6316 49.8513C84.3134 49.5351 84.1342 49.1059 84.1342 48.6587V40.8824C84.1366 40.4924 84.2747 40.1158 84.5258 39.8153C84.7768 39.5156 85.1242 39.3116 85.5095 39.237C85.8947 39.1633 86.2942 39.2245 86.6392 39.4097C86.9842 39.5956 87.2542 39.8938 87.4026 40.2555C90.2684 38.5764 92.0684 38.953 93.229 40.3575C94.5632 41.9816 94.429 44.869 94.3263 47.1915C94.3263 47.7564 94.2711 48.2899 94.2711 48.6587C94.2711 49.1036 94.0934 49.5304 93.7761 49.8458C93.4595 50.1605 93.03 50.3378 92.5816 50.3378C92.1332 50.3378 91.7037 50.1605 91.3871 49.8458C91.0697 49.5304 90.8921 49.1036 90.8921 48.6587C90.8921 48.1409 90.8921 47.6152 90.9474 47.0502C91.0263 45.2927 91.129 43.1272 90.6158 42.4916C90.4105 42.2406 89.5816 42.6007 87.529 44.2405V48.6587ZM33.2368 34.9672C33.5709 34.9672 33.8976 35.0652 34.1754 35.2496C34.4533 35.434 34.6698 35.6969 34.7977 36.0036C34.9256 36.3104 34.959 36.6478 34.8939 36.9734C34.8287 37.299 34.6678 37.598 34.4315 37.8334C34.1952 38.068 33.8942 38.228 33.5664 38.2924C33.2387 38.3575 32.899 38.3245 32.5903 38.1974C32.2816 38.0703 32.0177 37.8546 31.8321 37.5784C31.6465 37.303 31.5474 36.9781 31.5474 36.6462C31.5463 36.425 31.5893 36.2061 31.6738 36.0021C31.7584 35.7981 31.8828 35.6121 32.0398 35.456C32.1969 35.2998 32.3836 35.1767 32.5891 35.0927C32.7945 35.0088 33.0147 34.9656 33.2368 34.9672ZM97.129 34.9672C97.4637 34.9656 97.7905 35.0621 98.07 35.2457C98.3487 35.4293 98.5666 35.6914 98.6953 35.9982C98.8247 36.3042 98.8595 36.6423 98.7947 36.9687C98.7308 37.2951 98.5705 37.5948 98.3345 37.8302C98.0984 38.0656 97.7976 38.2265 97.4692 38.2924C97.1416 38.3575 96.8013 38.3245 96.4918 38.1982C96.1832 38.0711 95.9187 37.8561 95.7324 37.5792C95.5468 37.303 95.4474 36.9781 95.4474 36.6462C95.4474 36.2022 95.6242 35.7761 95.9392 35.4615C96.2542 35.1468 96.6821 34.9687 97.129 34.9672ZM5.74737 47.0816C6.19753 47.0816 6.62927 47.259 6.94758 47.5752C7.26591 47.8914 7.44474 48.3205 7.44474 48.7686C7.44474 49.2158 7.26591 49.645 6.94758 49.9612C6.62927 50.2774 6.19753 50.4555 5.74737 50.4555C4.60975 50.4539 3.49812 50.1173 2.55288 49.4881C1.60764 48.8588 0.871208 47.9651 0.436583 46.9208C0.00196004 45.8757 -0.111345 44.7262 0.110975 43.6176C0.333295 42.5089 0.881266 41.4905 1.68568 40.6909C2.49009 39.8914 3.51486 39.3469 4.63053 39.1256C5.74621 38.9044 6.90274 39.0174 7.95403 39.4497C9.00537 39.8812 9.90426 40.6133 10.5373 41.5524C11.1703 42.4916 11.5089 43.5972 11.5105 44.7278C11.5105 45.175 11.3317 45.6042 11.0134 45.9204C10.6951 46.2366 10.2633 46.4147 9.81316 46.4147H5.74737C5.31822 46.3849 4.91622 46.195 4.62261 45.8827C4.329 45.5705 4.16569 45.1585 4.16569 44.7309C4.16569 44.3041 4.329 43.8922 4.62261 43.5799C4.91622 43.2676 5.31822 43.0777 5.74737 43.0487H7.39736C7.11986 42.7772 6.77948 42.5787 6.4063 42.4697C6.0331 42.3598 5.6386 42.3441 5.25766 42.4226C4.87671 42.501 4.52103 42.6713 4.22208 42.9185C3.92312 43.1656 3.69008 43.4826 3.54355 43.8412C3.39702 44.199 3.34151 44.5873 3.38193 44.9718C3.42235 45.3563 3.55746 45.725 3.7753 46.0459C3.99315 46.3661 4.28703 46.6281 4.63098 46.8086C4.97493 46.989 5.35835 47.0832 5.74737 47.0816ZM27.9632 46.6501C28.1607 46.5465 28.3766 46.483 28.5988 46.4634C28.8209 46.443 29.0449 46.4665 29.2578 46.5324C29.4708 46.5983 29.6686 46.7058 29.84 46.8478C30.0114 46.989 30.1529 47.1632 30.2566 47.3602C30.3602 47.5563 30.424 47.7705 30.4442 47.9918C30.4644 48.2123 30.4407 48.4351 30.3743 48.6462C30.308 48.858 30.2004 49.0549 30.0576 49.2252C29.9147 49.3955 29.7396 49.5359 29.5421 49.6395C28.2006 50.326 26.7044 50.6587 25.1964 50.6069C23.6885 50.5551 22.219 50.1204 20.9284 49.3429C19.6378 48.5661 18.5692 47.4732 17.8246 46.1691C17.0799 44.8651 16.6842 43.3924 16.6751 41.893C16.666 40.3936 17.0439 38.9169 17.7727 37.6035C18.5015 36.2908 19.5568 35.1853 20.8379 34.3928C22.119 33.6004 23.5831 33.1476 25.0903 33.0778C26.5976 33.008 28.0977 33.3234 29.4474 33.9935C29.6464 34.0923 29.824 34.2288 29.97 34.3952C30.1161 34.5615 30.2276 34.7553 30.2983 34.9648C30.3691 35.1743 30.3977 35.3956 30.3823 35.616C30.367 35.8365 30.3082 36.0515 30.2092 36.2492C30.1102 36.4477 29.9729 36.6243 29.8053 36.7694C29.6376 36.9146 29.4429 37.0252 29.2322 37.095C29.0214 37.1657 28.7987 37.1939 28.5769 37.179C28.3551 37.1633 28.1385 37.1052 27.9395 37.0072C27.1699 36.6243 26.3211 36.425 25.4605 36.4266C24.6088 36.4375 23.7712 36.6439 23.0132 37.0307C21.7276 37.6859 20.7561 38.8212 20.3121 40.188C19.8681 41.5548 19.9877 43.0401 20.6447 44.3198C21.3023 45.5893 22.4369 46.5504 23.8026 46.9953C24.4832 47.2142 25.2009 47.2966 25.9138 47.237C26.6268 47.1781 27.3208 46.9781 27.9553 46.6501H27.9632ZM34.8632 48.5959C34.8632 49.0432 34.6843 49.4724 34.366 49.7886C34.0477 50.1048 33.6159 50.2829 33.1658 50.2829C32.7156 50.2829 32.2839 50.1048 31.9656 49.7886C31.6472 49.4724 31.4684 49.0432 31.4684 48.5959V40.8204C31.4684 40.3724 31.6472 39.9432 31.9656 39.627C32.2839 39.3108 32.7156 39.1335 33.1658 39.1335C33.6159 39.1335 34.0477 39.3108 34.366 39.627C34.6843 39.9432 34.8632 40.3724 34.8632 40.8204V48.5959ZM41.7 47.2386C42.1502 47.2386 42.5819 47.4159 42.9002 47.7321C43.2186 48.0483 43.3974 48.4775 43.3974 48.9247C43.3974 49.3727 43.2186 49.8019 42.9002 50.1181C42.5819 50.4343 42.1502 50.6124 41.7 50.6124C40.2095 50.5575 38.7984 49.9298 37.7634 48.8627C36.7284 47.7956 36.1501 46.3708 36.1501 44.8886C36.1501 43.4057 36.7284 41.9808 37.7634 40.9138C38.7984 39.8467 40.2095 39.219 41.7 39.1649C42.2821 39.1727 42.8595 39.2684 43.4132 39.4473V35.0927C43.4132 34.6431 43.5928 34.2116 43.9126 33.8938C44.2324 33.576 44.6661 33.3979 45.1184 33.3979C45.5707 33.3979 46.0044 33.576 46.3242 33.8938C46.644 34.2116 46.8237 34.6431 46.8237 35.0927V48.7842C46.8237 49.0063 46.7796 49.2268 46.6939 49.4323C46.6082 49.6379 46.4826 49.8246 46.3242 49.9824C46.1659 50.1393 45.9779 50.2648 45.771 50.3496C45.5641 50.4351 45.3424 50.479 45.1184 50.479C44.8945 50.479 44.6728 50.4351 44.4658 50.3496C44.2589 50.2648 44.0709 50.1393 43.9126 49.9824C43.7543 49.8246 43.6287 49.6379 43.5429 49.4323C43.4573 49.2268 43.4132 49.0063 43.4132 48.7842V43.2919C43.2317 43.1068 43.021 42.953 42.7895 42.8369C42.4575 42.6674 42.0889 42.5811 41.7158 42.5858C41.0878 42.5858 40.4859 42.8345 40.0421 43.2762C39.5978 43.7172 39.3479 44.3151 39.3474 44.9396C39.3479 45.5634 39.5978 46.1613 40.0421 46.603C40.4871 47.0416 41.0889 47.2864 41.7158 47.2856L41.7 47.2386ZM53.7316 47.2386C54.1817 47.2386 54.6135 47.4159 54.9318 47.7321C55.2501 48.0483 55.4289 48.4775 55.4289 48.9247C55.4289 49.3727 55.2501 49.8019 54.9318 50.1181C54.6135 50.4343 54.1817 50.6124 53.7316 50.6124C52.8793 50.5998 52.0401 50.4006 51.2748 50.0271C50.5096 49.6536 49.837 49.1169 49.3059 48.4539C48.7746 47.7917 48.398 47.0204 48.2029 46.195C48.0079 45.3704 47.9994 44.5128 48.178 43.685C48.3566 42.8565 48.7179 42.0774 49.2358 41.4049C49.7537 40.7317 50.4155 40.1817 51.1732 39.7933C51.9309 39.4057 52.7659 39.1892 53.6178 39.1602C54.4698 39.1319 55.3176 39.2912 56.1 39.6278C56.3982 39.3853 56.7726 39.2543 57.1579 39.259C57.6067 39.259 58.0372 39.4356 58.3554 39.7502C58.6735 40.0648 58.8531 40.4916 58.8553 40.9381V48.7215C58.8553 49.1687 58.6765 49.5979 58.3581 49.9141C58.0398 50.2303 57.6081 50.4084 57.1579 50.4084C56.7077 50.4084 56.276 50.2303 55.9577 49.9141C55.6393 49.5979 55.4605 49.1687 55.4605 48.7215V43.2292C55.2391 43.0024 54.9739 42.822 54.681 42.6996C54.388 42.5764 54.0732 42.5136 53.7553 42.5152C53.1273 42.5152 52.5253 42.7639 52.0816 43.2056C51.6373 43.6466 51.3874 44.2445 51.3868 44.869C51.3874 45.4928 51.6373 46.0907 52.0816 46.5324C52.5266 46.971 53.1285 47.2158 53.7553 47.215L53.7316 47.2386ZM65.7947 47.2386C66.2449 47.2386 66.6767 47.4159 66.995 47.7321C67.3133 48.0483 67.4921 48.4775 67.4921 48.9247C67.4921 49.3727 67.3133 49.8019 66.995 50.1181C66.6767 50.4343 66.2449 50.6124 65.7947 50.6124C64.9557 50.6289 64.1229 50.4641 63.3548 50.1283C62.5866 49.7917 61.9016 49.2935 61.3476 48.6666C60.7935 48.0404 60.3838 47.3013 60.1472 46.501C59.9105 45.7007 59.8524 44.8588 59.9773 44.0334C60.1021 43.2088 60.4067 42.421 60.8697 41.7258C61.3327 41.0299 61.9431 40.443 62.658 40.006C63.3729 39.5697 64.1753 39.2928 65.0089 39.1962C65.8425 39.0997 66.6873 39.1853 67.4842 39.4473V35.0927C67.4842 34.6431 67.6639 34.2116 67.9836 33.8938C68.3035 33.576 68.7372 33.3979 69.1895 33.3979C69.6418 33.3979 70.0755 33.576 70.3953 33.8938C70.715 34.2116 70.8947 34.6431 70.8947 35.0927V48.7842C70.8947 49.233 70.715 49.6646 70.3953 49.9824C70.0755 50.3001 69.6418 50.479 69.1895 50.479C68.7372 50.479 68.3035 50.3001 67.9836 49.9824C67.6639 49.6646 67.4842 49.233 67.4842 48.7842V43.2919C67.1548 42.9585 66.733 42.7302 66.2727 42.636C65.8123 42.5418 65.3341 42.5858 64.899 42.7623C64.4638 42.9389 64.0915 43.2402 63.8292 43.6278C63.5669 44.0154 63.4267 44.472 63.4263 44.9396C63.4263 45.5634 63.6759 46.1621 64.12 46.6038C64.5642 47.0448 65.1666 47.2935 65.7947 47.2935V47.2386ZM77.8263 47.2386C78.2765 47.2386 78.7082 47.4159 79.0263 47.7321C79.3445 48.0483 79.5237 48.4775 79.5237 48.9247C79.5237 49.3727 79.3445 49.8019 79.0263 50.1181C78.7082 50.4343 78.2765 50.6124 77.8263 50.6124C76.3358 50.5575 74.9247 49.9298 73.8897 48.8627C72.8547 47.7956 72.2764 46.3708 72.2764 44.8886C72.2764 43.4057 72.8547 41.9808 73.8897 40.9138C74.9247 39.8467 76.3358 39.219 77.8263 39.1649C78.643 39.1602 79.4511 39.332 80.1947 39.667C80.4963 39.4254 80.8729 39.2951 81.2605 39.2982C81.709 39.2982 82.14 39.4748 82.4582 39.7894C82.7763 40.104 82.9555 40.5309 82.9579 40.9773V48.7607C82.9579 49.2079 82.7787 49.6371 82.4605 49.9533C82.1424 50.2695 81.7105 50.4468 81.2605 50.4468C80.8105 50.4468 80.3787 50.2695 80.0605 49.9533C79.7424 49.6371 79.5632 49.2079 79.5632 48.7607V43.2684C79.3413 43.0416 79.0769 42.8612 78.7836 42.7388C78.4907 42.6156 78.1758 42.5528 77.8579 42.5544C77.2299 42.5544 76.628 42.8031 76.1842 43.2449C75.7399 43.6858 75.49 44.2837 75.4895 44.9082C75.49 45.532 75.7399 46.1299 76.1842 46.5708C76.6292 47.0102 77.2311 47.255 77.8579 47.2542L77.8263 47.2386ZM98.85 48.5959C98.8658 48.8266 98.8342 49.0581 98.7561 49.2754C98.6779 49.4935 98.5555 49.6928 98.3969 49.8623C98.2382 50.031 98.0463 50.166 97.8332 50.2578C97.6192 50.3496 97.3895 50.3974 97.1566 50.3974C96.9237 50.3974 96.694 50.3496 96.48 50.2578C96.2668 50.166 96.075 50.031 95.9163 49.8623C95.7576 49.6928 95.6353 49.4935 95.5571 49.2754C95.479 49.0581 95.4474 48.8266 95.4632 48.5959V40.8204C95.4474 40.5897 95.479 40.3583 95.5571 40.1401C95.6353 39.922 95.7576 39.7227 95.9163 39.5532C96.075 39.3846 96.2668 39.2496 96.48 39.1578C96.694 39.066 96.9237 39.0181 97.1566 39.0181C97.3895 39.0181 97.6192 39.066 97.8332 39.1578C98.0463 39.2496 98.2382 39.3846 98.3969 39.5532C98.5555 39.7227 98.6779 39.922 98.7561 40.1401C98.8342 40.3583 98.8658 40.5897 98.85 40.8204V48.5959ZM105.75 47.4033C106.2 47.4033 106.632 47.5806 106.95 47.8968C107.268 48.213 107.447 48.6422 107.447 49.0903C107.447 49.5375 107.268 49.9667 106.95 50.2829C106.632 50.5991 106.2 50.7772 105.75 50.7772C104.889 50.778 104.04 50.5881 103.263 50.2201C102.486 49.8521 101.802 49.3162 101.261 48.6516C100.719 47.9871 100.335 47.2103 100.135 46.3786C99.9355 45.5469 99.9261 44.6807 100.107 43.8451C100.288 43.0087 100.655 42.2241 101.181 41.547C101.707 40.8706 102.379 40.319 103.147 39.9346C103.915 39.5493 104.761 39.3406 105.621 39.3226C106.481 39.3045 107.334 39.4787 108.118 39.831C108.417 39.5878 108.79 39.4544 109.176 39.4552C109.626 39.4552 110.058 39.6325 110.376 39.9487C110.694 40.2649 110.874 40.6941 110.874 41.1421V48.9247C110.874 49.3727 110.694 49.8019 110.376 50.1181C110.058 50.4343 109.626 50.6124 109.176 50.6124C108.726 50.6124 108.294 50.4343 107.976 50.1181C107.658 49.8019 107.479 49.3727 107.479 48.9247V43.4324C107.257 43.2064 106.993 43.026 106.7 42.9036C106.406 42.7812 106.092 42.7176 105.774 42.7192C105.145 42.7192 104.543 42.9671 104.099 43.4081C103.655 43.8498 103.405 44.4485 103.405 45.073C103.405 45.6968 103.655 46.2954 104.099 46.7372C104.543 47.1781 105.145 47.4269 105.774 47.4269L105.75 47.4033Z" fill="#052848"/>
</g>
<defs>
<clipPath id="clip0">
<rect width="165" height="51" fill="white"/>
</clipPath>
</defs>
</svg>
