<svg width="300" height="300" viewBox="0 0 300 300" fill="none" xmlns="http://www.w3.org/2000/svg">
<path fill-rule="evenodd" clip-rule="evenodd" d="M0 0H300V300H0V0Z" fill="#052848"/>
<path fill-rule="evenodd" clip-rule="evenodd" d="M141.002 108.877C136.593 110.067 131.721 113.086 127.067 119.289C123.699 123.778 117.472 124.576 113.159 121.07C108.846 117.564 108.081 111.082 111.449 106.593C118.416 97.3065 126.853 91.3858 136.03 88.9098C145.17 86.4437 154.333 87.5879 162.464 91.1723C178.504 98.2434 191.048 114.949 194.069 134.775L194.069 134.775C195.489 144.099 196.629 152.802 197.662 160.688C198.075 163.84 198.47 166.861 198.86 169.74C200.248 179.995 201.561 188.434 203.318 195.489C204.692 201.003 201.512 206.632 196.215 208.062C190.918 209.492 185.51 206.181 184.136 200.668C182.068 192.368 180.629 182.899 179.237 172.618C178.825 169.573 178.416 166.454 177.996 163.245C176.973 155.435 175.881 147.095 174.497 138.006C172.487 124.821 164.14 114.312 154.736 110.167C150.145 108.143 145.447 107.678 141.002 108.877Z" fill="#5BBE52"/>
<path fill-rule="evenodd" clip-rule="evenodd" d="M218.333 80.7693C222.813 77.4981 228.992 78.6265 232.135 83.2896C238.131 92.1868 242.606 105.556 244.759 114.7C246.062 120.232 242.81 125.816 237.495 127.173C232.18 128.529 226.816 125.144 225.513 119.611C223.599 111.488 219.851 100.981 215.912 95.1358C212.769 90.4727 213.853 84.0406 218.333 80.7693Z" fill="#BADE9E"/>
<path fill-rule="evenodd" clip-rule="evenodd" d="M139.072 204.635C144.543 204.501 149.083 209.008 149.212 214.702C149.548 229.507 147.072 241.975 140.33 250.937C136.956 255.422 130.728 256.211 126.42 252.699C122.111 249.187 121.353 242.704 124.727 238.22C127.385 234.686 129.689 227.882 129.401 215.19C129.272 209.495 133.602 204.77 139.072 204.635Z" fill="#055782"/>
<path fill-rule="evenodd" clip-rule="evenodd" d="M160.034 122.188C164.163 126.365 166.748 132.346 168.337 138.599C169.736 144.106 166.582 149.751 161.291 151.207C156.001 152.664 150.578 149.38 149.179 143.874C148.646 141.775 148.052 140.166 147.486 138.989C147.408 139.134 147.328 139.291 147.246 139.46C146.183 141.648 145.191 145.122 144.567 150.078C143.324 159.953 143.797 173.506 145.889 188.901C146.655 194.541 142.884 199.76 137.466 200.557C132.047 201.355 127.034 197.43 126.267 191.79C124.052 175.482 123.348 159.867 124.918 147.397C125.701 141.181 127.114 135.188 129.561 130.151C132.025 125.081 135.943 120.207 141.966 117.917C148.844 115.277 155.42 117.523 160.034 122.188ZM148.774 137.289L148.815 137.273C148.805 137.277 148.795 137.281 148.784 137.285C148.797 137.279 148.803 137.275 148.803 137.275C148.803 137.274 148.794 137.278 148.778 137.287C148.78 137.286 148.782 137.286 148.784 137.285" fill="#008BD2"/>
<path fill-rule="evenodd" clip-rule="evenodd" d="M160.056 155.779C165.487 155.075 170.437 159.086 171.114 164.738C171.551 168.387 172.003 171.941 172.444 175.407C174.169 188.972 175.725 201.206 175.55 212.65C175.463 218.346 170.957 222.889 165.485 222.799C160.014 222.708 155.649 218.017 155.736 212.322C155.885 202.545 154.585 192.279 152.901 178.981C152.439 175.33 151.948 171.45 151.449 167.289C150.773 161.637 154.626 156.484 160.056 155.779Z" fill="#009B3A"/>
<path fill-rule="evenodd" clip-rule="evenodd" d="M112.24 126.55C117.664 127.309 121.469 132.501 120.739 138.146C120.472 140.213 120.018 142.404 119.662 144.121C119.578 144.531 119.498 144.914 119.428 145.262C119.012 147.336 118.767 148.871 118.715 150.249C118.504 155.941 113.9 160.377 108.432 160.158C102.964 159.938 98.7021 155.145 98.9133 149.453C99.0316 146.265 99.5711 143.33 100.031 141.041C100.158 140.405 100.276 139.835 100.384 139.312C100.71 137.729 100.946 136.584 101.099 135.396C101.829 129.751 106.817 125.79 112.24 126.55Z" fill="#FCB92C"/>
<path fill-rule="evenodd" clip-rule="evenodd" d="M127.407 71.0004C130.051 75.9874 128.31 82.2614 123.519 85.0138C108.23 93.7972 99.6894 109.933 94.783 130.012C93.4341 135.532 88.0413 138.869 82.7379 137.465C77.4345 136.061 74.2287 130.447 75.5777 124.927C81.1059 102.303 91.7755 79.6896 113.944 66.9542C118.735 64.2018 124.762 66.0134 127.407 71.0004Z" fill="#FECE4E"/>
<path fill-rule="evenodd" clip-rule="evenodd" d="M117.683 45.0269C120.012 50.1817 117.885 56.3252 112.932 58.7488C99.789 65.1809 79.696 84.2469 70.5257 114.588C68.8834 120.022 63.3204 123.041 58.1004 121.331C52.8803 119.622 49.98 113.831 51.6222 108.397C62.4293 72.6413 86.2688 49.0039 104.501 40.0815C109.453 37.6579 115.355 39.872 117.683 45.0269Z" fill="#FFDA62"/>
<path fill-rule="evenodd" clip-rule="evenodd" d="M170.509 87.0441C160.593 80.9581 150.444 78.5301 142.486 79.5725C136.947 80.298 131.887 76.2556 131.183 70.5435C130.48 64.8314 134.4 59.6128 139.938 58.8873C153.473 57.1145 168.133 61.321 180.849 69.1258C193.666 76.992 205.31 88.9837 212.645 104.021C218.777 116.584 221.506 128.448 223.189 139.458C223.897 144.093 224.433 148.677 224.939 153.002C225.025 153.743 225.111 154.477 225.197 155.201C225.792 160.247 226.388 164.959 227.241 169.575C228.286 175.231 224.686 180.69 219.202 181.767C213.717 182.845 208.424 179.133 207.379 173.477C206.389 168.117 205.726 162.804 205.126 157.721C205.035 156.952 204.946 156.19 204.858 155.434C204.35 151.096 203.863 146.934 203.217 142.705C201.722 132.924 199.446 123.355 194.585 113.396L194.584 113.394C189.135 102.223 180.324 93.0682 170.509 87.0441Z" fill="#9FD179"/>
</svg>
